<svg id="Layer_1" data-name="Layer 1" xmlns="http://www.w3.org/2000/svg" viewBox="0 0 19.44 18.1"><defs><style>.cls-1{fill:none;stroke:#000;stroke-miterlimit:10;stroke-width:0.05px;}.cls-2{fill:#88ebe1;}.cls-3{fill:#b5f1ea;}.cls-4{fill:#4ae8dd;}</style></defs><title>CompoundLogo</title><path class="cls-1" d="M21.14,27.57" transform="translate(-9.97 -9.46)"/><path class="cls-1" d="M22.83,14.4" transform="translate(-9.97 -9.46)"/><g id="_Group_" data-name="&lt;Group&gt;"><path class="cls-2" d="M22.33,14.39a.44.44,0,0,1,.44.51l-1.6,12.17a3.7,3.7,0,0,1-.07.49H15.73s0-.23.06-.5l1.59-12.27a.56.56,0,0,1,.56-.49Z" transform="translate(-9.97 -9.46)"/></g><path class="cls-3" d="M15.85,19.06H11.52a.5.5,0,0,0-.49.44L10,27.55h5.34l1-7.92A.51.51,0,0,0,15.85,19.06Z" transform="translate(-9.97 -9.46)"/><path class="cls-4" d="M29,9.46H24.61a.58.58,0,0,0-.56.5L21.84,27.55h5.48L29.4,10A.44.44,0,0,0,29,9.46Z" transform="translate(-9.97 -9.46)"/></svg>