<svg xmlns="http://www.w3.org/2000/svg" width="172.028" height="36" viewBox="0 0 172.028 36">
    <defs>
        <style>
            .cls-1{fill:#00b4af}.cls-2{fill:#009fb7}.cls-3{fill:#04b5ad}.cls-4{fill:#117bbf}.cls-5{fill:#0688bf}.cls-6{fill:#009cb7}.cls-7{fill:#0095ba}.cls-8{fill:#2471b8}.cls-9{fill:#008bbc}.cls-10{fill:#028cbc}.cls-11{fill:#047cc0}.cls-12{fill:#3162ad}.cls-13{fill:#2c69b2}.cls-14{fill:#1479be}.cls-15{fill:#2e66b0}.cls-16{fill:#fff}.cls-17{fill:#42bb9f}.cls-18{fill:#345aa8}.cls-19{fill:#345ca9}.cls-20{fill:#3856a5}.cls-21{fill:#3065af}.cls-22{fill:#3060ab}.cls-23{fill:#345eaa}
        </style>
    </defs>
    <g id="fulcrum_logo" transform="translate(-32 -18)">
        <g id="Group_431" data-name="Group 431" transform="translate(6.951 -382.62)">
            <path id="Path_341" d="M31.215 441.68a15.857 15.857 0 0 0-4.795 6.346 16.2 16.2 0 0 0-1.34 7.533l4.51 3.431z" class="cls-1" data-name="Path 341" transform="translate(0 -33.777)"/>
            <path id="Path_342" d="M33 537.378a15.719 15.719 0 0 0 4.313 5.766l-1.252-8.033z" class="cls-2" data-name="Path 342" transform="translate(-6.478 -110.404)"/>
            <path id="Path_343" d="M25.22 516.59a16.545 16.545 0 0 0 1.162 5.023c.093.23.185.454.287.676l3.061-2.268z" class="cls-3" data-name="Path 343" transform="translate(-.139 -95.057)"/>
            <path id="Path_344" d="M101.824 565.976L98 571.782a15.407 15.407 0 0 0 5.968-.061l-1.058-5.9a10.153 10.153 0 0 1-1.086.155z" class="cls-4" data-name="Path 344" transform="translate(-59.435 -135.424)"/>
            <path id="Path_345" d="M118.241 405.159l-1.671 7.189 1.38-.552 3.207-7.806z" class="cls-5" data-name="Path 345" transform="translate(-74.564 -2.746)"/>
            <path id="Path_346" d="M51.437 451.6a10.438 10.438 0 0 1 5.534-12.221l-3.841-4.769a16.012 16.012 0 0 0-1.945 1.31l-1.625 17.31z" class="cls-6" data-name="Path 346" transform="translate(-19.969 -27.98)"/>
            <path id="Path_347" d="M97.53 412.384L99.783 418l1.275-.511 1.671-7.189z" class="cls-7" data-name="Path 347" transform="translate(-59.052 -7.887)"/>
            <path id="Path_348" d="M73.268 431.927c.289-.119.587-.226.884-.322l.754-.241-2.244-5.593L72 426q-.456.156-.91.335a17.862 17.862 0 0 0-2.223 1.076l3.841 4.769c.181-.089.368-.174.56-.253z" class="cls-7" data-name="Path 348" transform="translate(-35.702 -20.49)"/>
            <path id="Path_349" d="M149.463 400.62l-.063.024 2.846 5.377 2.668-1.069-4.532-4.109z" class="cls-8" data-name="Path 349" transform="translate(-101.312)"/>
            <path id="Path_350" d="M52.573 528.945a10.7 10.7 0 0 1-.832-1.654 11.461 11.461 0 0 1-.345-.98l-1.877 1.63z" class="cls-9" data-name="Path 350" transform="translate(-19.937 -102.969)"/>
            <path id="Path_351" d="M101.065 495.586a2.409 2.409 0 0 0-1.343 3.138l.456 1.134a2.408 2.408 0 0 0 2.627 1.482l-1.18-5.981z" class="cls-9" data-name="Path 351" transform="translate(-60.695 -77.661)"/>
            <path id="Path_352" d="M57.337 540.107a10.064 10.064 0 0 1-4.763-3.993l-3.053-1 1.252 8.033a16.844 16.844 0 0 0 4.178 2.527 17.261 17.261 0 0 0 2.709.906c.283.069.567.126.85.185l3.817-5.8a10.172 10.172 0 0 1-4.989-.856z" class="cls-10" data-name="Path 352" transform="translate(-19.937 -110.404)"/>
            <path id="Path_353" d="M127.227 401.35l-3.207 7.806 7.548-3.029-2.846-5.377z" class="cls-11" data-name="Path 353" transform="translate(-80.634 -.106)"/>
            <path id="Path_354" d="M133.624 562.11c-.119.05-.239.1-.358.146-.082.031-.163.059-.246.089l2.553 1.041-.385-.958z" class="cls-12" data-name="Path 354" transform="translate(-87.967 -132.401)"/>
            <path id="Path_355" d="M124.54 563.825l1.058 5.9a17.543 17.543 0 0 0 3-.908c.313-.126.619-.259.917-.4l.634-.295-1.482-3.705-2.557-1.041a10.98 10.98 0 0 1-1.567.445z" class="cls-13" data-name="Path 355" transform="translate(-81.058 -133.436)"/>
            <path id="Path_356" d="M119.168 484.569a2.418 2.418 0 0 0-3.14-1.336l-5.267 2.114 1.18 5.981a2.44 2.44 0 0 0 .511-.141l5.7-2.284 1.617-2.664a2.423 2.423 0 0 0-.143-.528z" class="cls-14" data-name="Path 356" transform="translate(-69.831 -67.61)"/>
            <path id="Path_357" d="M150.755 502.791a2.409 2.409 0 0 0 1.482-2.611l-1.617 2.664z" class="cls-15" data-name="Path 357" transform="translate(-102.306 -81.563)"/>
            <path id="Path_358" d="M137.527 559l-.7.352a13.83 13.83 0 0 1-.495.224l1.564.326z" class="cls-15" data-name="Path 358" transform="translate(-90.663 -129.715)"/>
            <path id="Path_359" d="M159.232 405.929l4.671-1.873-9.2-2.236z" class="cls-13" data-name="Path 359" transform="translate(-105.63 -.978)"/>
            <path id="Path_360" d="M327.2 468.744a.874.874 0 0 0-.645-.239h-3.272a.88.88 0 0 0-.624.239.834.834 0 0 0-.258.643V479.5a4.683 4.683 0 0 1-1.123 3.309 3.931 3.931 0 0 1-3.033 1.214q-3.935 0-3.935-4.522v-10.114a.88.88 0 0 0-.882-.882h-.219l-3.974 1.482v9.731a8.847 8.847 0 0 0 1.949 6.068 6.12 6.12 0 0 0 5.332 2.2c3.891-.38 5.036-1.606 6.1-3.726v2.488a.88.88 0 0 0 .882.882h3.051a.837.837 0 0 0 .645-.258.882.882 0 0 0 .239-.624v-17.361a.869.869 0 0 0-.233-.643z" class="cls-16" data-name="Path 360" transform="translate(-232.863 -56.138)"/>
            <path id="Path_361" d="M248.779 425.55h-2.539q-3.641 0-5.441 1.586a6.1 6.1 0 0 0-1.8 4.83v19.109a.84.84 0 0 0 .258.605.894.894 0 0 0 .624.25h3.053a.837.837 0 0 0 .882-.855v-13.868h4.6a.891.891 0 0 0 .625-.249.837.837 0 0 0 .257-.606v-2.1a.837.837 0 0 0-.256-.607.89.89 0 0 0-.626-.249h-4.6v-1.247a3.152 3.152 0 0 1 .589-2.105 2.568 2.568 0 0 1 2.021-.677h2.355a.9.9 0 0 0 .624-.25.84.84 0 0 0 .258-.605V426.4a.84.84 0 0 0-.258-.605.894.894 0 0 0-.624-.25z" class="cls-16" data-name="Path 361" transform="translate(-175.264 -20.311)"/>
            <path id="Path_362" d="M490.865 527.573a10.279 10.279 0 0 0 13.766-4.6 10.67 10.67 0 0 0 1.039-4 .654.654 0 0 0-.86-.667l-2.651.891a.66.66 0 0 0-.432.482 6.986 6.986 0 0 1-.537 1.588 6.142 6.142 0 0 1-3.706 3.214 6.223 6.223 0 0 1-4.906-.346 6.4 6.4 0 0 1-1.773-1.288L487 524.266a9.953 9.953 0 0 0 3.865 3.307z" class="cls-16" data-name="Path 362" transform="translate(-378.524 -96.682)"/>
            <path id="Path_363" d="M481.775 470.9a6.19 6.19 0 0 1 3.689-3.209 6.1 6.1 0 0 1 4.869.309 6.945 6.945 0 0 1 1.388.939.65.65 0 0 0 .634.124l2.651-.889a.652.652 0 0 0 .282-1.05 10.678 10.678 0 0 0-3.242-2.566 9.83 9.83 0 0 0-7.813-.541 10.34 10.34 0 0 0-6.875 11.263l3.737-1.384a6.285 6.285 0 0 1 .68-2.996z" class="cls-16" data-name="Path 363" transform="translate(-370.528 -51.579)"/>
            <path id="Path_364" d="M443.712 535.924v-2.034l-3.722 1.382 3.722 3.133z" class="cls-1" data-name="Path 364" transform="translate(-339.836 -109.214)"/>
            <path id="Path_365" d="M382.372 556.948h3.051a.838.838 0 0 0 .645-.263.882.882 0 0 0 .239-.624v-2.631l-4.817 1.788v.849a.88.88 0 0 0 .882.882z" class="cls-17" data-name="Path 365" transform="translate(-291.934 -125.33)"/>
            <path id="Path_366" d="M438.742 544.937v-.454l-3.72-3.133-1.132.421v4.447a.926.926 0 0 0 .133.478z" class="cls-3" data-name="Path 366" transform="translate(-334.851 -115.488)"/>
            <path id="Path_367" d="M607.958 502.859l.606-.226-.7-.313z" class="cls-18" data-name="Path 367" transform="translate(-477.278 -83.289)"/>
            <path id="Path_368" d="M608.564 502.633l.793-.3-1.5-.017z" class="cls-19" data-name="Path 368" transform="translate(-477.289 -83.287)"/>
            <path id="Path_369" d="M481.936 521.706a6.5 6.5 0 0 1-.328-1.886l-3.728 1.386a10.777 10.777 0 0 0 .417 1.727.247.247 0 0 0 .026.076 10.311 10.311 0 0 0 1.247 2.522l2.529-.945.991-.786a6.26 6.26 0 0 1-1.145-2.051.1.1 0 0 0-.009-.043z" class="cls-6" data-name="Path 369" transform="translate(-370.884 -97.705)"/>
            <path id="Path_370" d="M608.252 477.11l-1.062.395v4.011l.124.265z" class="cls-8" data-name="Path 370" transform="translate(-476.734 -62.685)"/>
            <path id="Path_371" d="M662.168 471.3v-1.18a1.028 1.028 0 0 0-.054-.321.892.892 0 0 0-.033-.083c-.013-.028-.02-.059-.035-.085a.783.783 0 0 0-.117-.154.871.871 0 0 0-.645-.239h-.308l-1.7 3.15z" class="cls-20" data-name="Path 371" transform="translate(-519.421 -56.215)"/>
            <path id="Path_372" d="M501.915 541.648c-.1-.1-.185-.2-.276-.308l-1 .786z" class="cls-9" data-name="Path 372" transform="translate(-389.479 -115.25)"/>
            <path id="Path_373" d="M607.19 500.89v.295l.124-.03z" class="cls-11" data-name="Path 373" transform="translate(-476.721 -82.115)"/>
            <path id="Path_374" d="M607.19 502.35v.154l.124-.183z" class="cls-14" data-name="Path 374" transform="translate(-476.721 -83.285)"/>
            <path id="Path_375" d="M607.19 502.5v.439l.222-.083-.1-.539z" class="cls-15" data-name="Path 375" transform="translate(-476.723 -83.29)"/>
            <path id="Path_376" d="M608.8 475.529l-.937 4.671 1.5.017 3.848-1.44-3.437-3.607z" class="cls-21" data-name="Path 376" transform="translate(-477.345 -61.099)"/>
            <path id="Path_377" d="M621.328 475.016c-.039.043-.082.08-.12.124a.15.15 0 0 1-.263-.1v-.276l-2.156-.856-.628.233 3.437 3.607 3.531-1.321-3.731-1.482z" class="cls-22" data-name="Path 377" transform="translate(-485.805 -60.053)"/>
            <path id="Path_378" d="M640.464 469.185a8.67 8.67 0 0 0-.8.037 2.35 2.35 0 0 0-.256.033c-.172.022-.343.043-.508.074-.1.019-.185.044-.287.067-.145.035-.291.069-.43.111-.1.03-.185.067-.285.1-.13.046-.259.093-.385.148-.094.041-.185.087-.274.133s-.235.12-.348.185-.174.109-.259.167-.213.144-.317.224-.161.13-.241.2-.185.172-.287.265c-.054.052-.1.106-.154.159l3.731 1.482.65-.243 1.7-3.15h-1.245z" class="cls-23" data-name="Path 378" transform="translate(-500.101 -56.173)"/>
            <path id="Path_379" d="M623.706 470.984a.9.9 0 0 0-.258-.661.829.829 0 0 0-.078-.063l-1.821.676 2.156.856z" class="cls-23" data-name="Path 379" transform="translate(-488.51 -57.041)"/>
            <path id="Path_380" d="M437.828 431.491h-.371l-3.607 1.349v19.424l4.854-1.8v-18.092a.824.824 0 0 0-.882-.882z" class="cls-16" data-name="Path 380" transform="translate(-334.818 -25.445)"/>
            <path id="Path_381" d="M711.192 470.1a.824.824 0 0 0-.882-.884h-3.274a.882.882 0 0 0-.624.239.836.836 0 0 0-.257.645v10.112a4.712 4.712 0 0 1-1.112 3.309 3.928 3.928 0 0 1-3.043 1.22q-3.935 0-3.935-4.523V470.1a.876.876 0 0 0-.882-.884h-1.136L693 470.36v10.073a8.852 8.852 0 0 0 1.947 6.068 6.745 6.745 0 0 0 5.332 2.207 7.112 7.112 0 0 0 6.114-2.759v1.508a.846.846 0 0 0 .258.624 1.072 1.072 0 0 0 .124.1l4.436-1.667z" class="cls-16" data-name="Path 381" transform="translate(-547.312 -56.72)"/>
            <path id="Path_382" d="M607.189 485.043v11.487a.846.846 0 0 0 .258.624l.011.011a.856.856 0 0 0 .613.246h.269l3.891-1.454v-8.046a4.243 4.243 0 0 1 .387-1.873 3.131 3.131 0 0 1 .606-.847 3.662 3.662 0 0 1 2.72-.993h2.9a1.07 1.07 0 0 0 .185-.017.789.789 0 0 0 .452-.241.887.887 0 0 0 .239-.626v-2.964z" class="cls-16" data-name="Path 382" transform="translate(-476.905 -65.789)"/>
            <path id="Path_383" d="M849.532 473.824a8.51 8.51 0 0 0-1.912-5.994 6.214 6.214 0 0 0-3.489-1.931 7.853 7.853 0 0 0-1.44-.128 7.3 7.3 0 0 0-.68.041 7.04 7.04 0 0 0-2.812.86 6.568 6.568 0 0 0-2.5 2.372 5.813 5.813 0 0 0-5.699-3.272 6.452 6.452 0 0 0-5.332 2.5v-1.245a8.109 8.109 0 0 0-.163-1.586L821 467.122v17.256a.88.88 0 0 0 .882.882h3.125a.838.838 0 0 0 .645-.258.882.882 0 0 0 .239-.624v-10.26a4.688 4.688 0 0 1 1.011-3.335 3.268 3.268 0 0 1 2.435-1.041 3.335 3.335 0 0 1 2.538 1.049 4.737 4.737 0 0 1 .993 3.335v10.26a.88.88 0 0 0 .882.882h3.089a.836.836 0 0 0 .65-.271.882.882 0 0 0 .239-.624v-10.255a4.688 4.688 0 0 1 1.012-3.335 3.269 3.269 0 0 1 2.444-1.049 4.105 4.105 0 0 1 .83.083 3.332 3.332 0 0 1 .463.128l.043.015a3.026 3.026 0 0 1 .433.195 3.229 3.229 0 0 1 .359.235l.083.065a3.228 3.228 0 0 1 .335.3 4.78 4.78 0 0 1 .974 3.346v10.26a.865.865 0 0 0 .257.624.741.741 0 0 0 .083.068.759.759 0 0 0 .245.137h.018a.911.911 0 0 0 .278.046h3.053a.833.833 0 0 0 .643-.258 1.123 1.123 0 0 0 .239-.624z" class="cls-16" data-name="Path 383" transform="translate(-652.454 -53.642)"/>
        </g>
    </g>
</svg>
