<svg width="32" height="32" viewBox="0 0 32 32" fill="none" xmlns="http://www.w3.org/2000/svg">
<rect width="32" height="32" rx="6" fill="none"/>
<path fill-rule="evenodd" clip-rule="evenodd" d="M7.91509 4H9.7931V9.7931H4V7.91509C4 5.71897 5.80461 4 7.91509 4ZM13.1034 4H24.2031C26.2956 4 28.006 5.78322 28 7.87577V18.8966H13.1034V4ZM4 13.1035H9.7931V18.8966H4V13.1035ZM24.0849 28H22.2069V22.2069H28V24.0808C28 26.2792 26.1954 28 24.0849 28ZM13.1034 22.2069H18.8966V28H13.1034V22.2069ZM4 24.0849V22.2069H9.7931V28H7.91509C5.71897 28 4 26.1954 4 24.0849Z" fill="#232F55"/>
</svg>
