<svg id="svg" xmlns="http://www.w3.org/2000/svg" xmlns:xlink="http://www.w3.org/1999/xlink" width="400" height="400" viewBox="0, 0, 400,400"><g id="svgg"><path id="path0" d="M200.267 153.867 C 200.120 154.013,200.000 180.113,200.000 211.867 C 200.000 243.620,199.881 269.600,199.735 269.600 C 199.433 269.600,198.033 268.808,190.200 264.208 C 187.120 262.399,182.350 259.605,179.600 258.000 C 176.850 256.395,170.280 252.524,165.000 249.399 C 159.720 246.274,151.350 241.324,146.400 238.400 C 135.929 232.214,119.704 222.614,113.438 218.896 C 109.065 216.302,106.800 215.323,106.800 216.028 C 106.800 216.233,106.260 216.400,105.600 216.400 C 104.940 216.400,104.400 216.580,104.400 216.800 C 104.400 217.020,104.040 217.200,103.600 217.200 C 103.160 217.200,102.800 217.380,102.800 217.600 C 102.800 217.820,102.440 218.000,102.000 218.000 C 101.560 218.000,101.200 218.180,101.200 218.400 C 101.200 218.620,100.840 218.800,100.400 218.800 C 99.960 218.800,99.600 218.980,99.600 219.200 C 99.600 219.420,99.060 219.600,98.400 219.600 C 97.740 219.600,97.200 219.780,97.200 220.000 C 97.200 220.220,96.840 220.400,96.400 220.400 C 95.960 220.400,95.600 220.580,95.600 220.800 C 95.600 221.020,95.240 221.200,94.800 221.200 C 94.360 221.200,94.000 221.380,94.000 221.600 C 94.000 221.820,93.460 222.000,92.800 222.000 C 92.140 222.000,91.600 222.180,91.600 222.400 C 91.600 222.620,91.240 222.800,90.800 222.800 C 90.360 222.800,90.000 222.980,90.000 223.200 C 90.000 223.420,89.640 223.600,89.200 223.600 C 88.760 223.600,88.400 223.780,88.400 224.000 C 88.400 224.220,87.860 224.400,87.200 224.400 C 86.540 224.400,86.000 224.580,86.000 224.800 C 86.000 225.020,85.640 225.200,85.200 225.200 C 84.760 225.200,84.400 225.380,84.400 225.600 C 84.400 225.820,84.040 226.000,83.600 226.000 C 81.584 226.000,82.097 226.323,115.400 245.995 C 122.220 250.024,130.590 254.978,134.000 257.004 C 137.410 259.031,145.780 263.980,152.600 268.003 C 159.420 272.027,168.240 277.245,172.200 279.600 C 190.642 290.566,199.924 296.000,200.214 296.000 C 200.481 296.000,207.009 292.211,214.000 287.999 C 214.990 287.403,219.760 284.576,224.600 281.717 C 229.440 278.858,236.370 274.753,240.000 272.595 C 246.306 268.845,252.019 265.486,254.600 264.012 C 255.260 263.635,258.050 261.980,260.800 260.335 C 263.550 258.690,267.330 256.443,269.200 255.342 C 271.070 254.241,276.605 250.968,281.500 248.070 C 286.395 245.171,294.405 240.436,299.300 237.547 C 304.195 234.658,308.871 231.868,309.691 231.347 C 310.512 230.826,311.270 230.400,311.378 230.400 C 311.485 230.400,312.433 229.861,313.486 229.202 C 317.316 226.805,318.049 226.000,316.400 226.000 C 315.960 226.000,315.600 225.820,315.600 225.600 C 315.600 225.380,315.240 225.200,314.800 225.200 C 314.360 225.200,314.000 225.020,314.000 224.800 C 314.000 224.580,313.460 224.400,312.800 224.400 C 312.140 224.400,311.600 224.220,311.600 224.000 C 311.600 223.780,311.240 223.600,310.800 223.600 C 310.360 223.600,310.000 223.420,310.000 223.200 C 310.000 222.980,309.640 222.800,309.200 222.800 C 308.760 222.800,308.400 222.620,308.400 222.400 C 308.400 222.180,307.860 222.000,307.200 222.000 C 306.540 222.000,306.000 221.820,306.000 221.600 C 306.000 221.380,305.640 221.200,305.200 221.200 C 304.760 221.200,304.400 221.020,304.400 220.800 C 304.400 220.580,304.040 220.400,303.600 220.400 C 303.160 220.400,302.800 220.220,302.800 220.000 C 302.800 219.780,302.440 219.600,302.000 219.600 C 301.560 219.600,301.200 219.420,301.200 219.200 C 301.200 218.980,300.660 218.800,300.000 218.800 C 299.340 218.800,298.800 218.620,298.800 218.400 C 298.800 218.180,298.440 218.000,298.000 218.000 C 297.560 218.000,297.200 217.820,297.200 217.600 C 297.200 217.380,296.840 217.200,296.400 217.200 C 295.960 217.200,295.600 217.020,295.600 216.800 C 295.600 216.580,295.060 216.400,294.400 216.400 C 293.740 216.400,293.200 216.220,293.200 216.000 C 293.200 215.780,293.560 215.600,294.000 215.600 C 294.440 215.600,294.800 215.420,294.800 215.200 C 294.800 214.980,295.120 214.800,295.512 214.800 C 295.903 214.800,296.483 214.440,296.800 214.000 C 297.117 213.560,297.697 213.200,298.088 213.200 C 298.480 213.200,298.800 213.020,298.800 212.800 C 298.800 212.580,299.160 212.400,299.600 212.400 C 300.040 212.400,300.400 212.220,300.400 212.000 C 300.400 211.780,300.720 211.600,301.112 211.600 C 301.503 211.600,302.083 211.240,302.400 210.800 C 302.717 210.360,303.297 210.000,303.688 210.000 C 304.080 210.000,304.400 209.820,304.400 209.600 C 304.400 209.380,304.720 209.200,305.112 209.200 C 305.503 209.200,306.083 208.840,306.400 208.400 C 306.717 207.960,307.297 207.600,307.688 207.600 C 308.080 207.600,308.400 207.420,308.400 207.200 C 308.400 206.980,308.720 206.800,309.112 206.800 C 309.503 206.800,310.083 206.440,310.400 206.000 C 310.717 205.560,311.297 205.200,311.688 205.200 C 314.554 205.200,318.297 206.943,207.851 156.843 C 203.919 155.059,200.664 153.600,200.618 153.600 C 200.571 153.600,200.413 153.720,200.267 153.867 " stroke="none" fill="#193d51" fill-rule="evenodd"></path><path id="path1" d="M198.800 18.000 C 198.800 18.440,198.620 18.800,198.400 18.800 C 198.180 18.800,198.000 19.036,198.000 19.325 C 198.000 19.613,197.640 20.236,197.200 20.708 C 196.760 21.180,196.400 21.844,196.400 22.183 C 196.400 22.522,196.248 22.800,196.063 22.800 C 195.877 22.800,195.294 23.655,194.765 24.700 C 194.237 25.745,193.583 26.833,193.312 27.119 C 193.041 27.404,192.507 28.304,192.125 29.119 C 191.743 29.933,191.203 30.833,190.925 31.119 C 190.647 31.404,190.106 32.304,189.723 33.119 C 189.340 33.933,188.705 34.949,188.313 35.375 C 187.921 35.802,187.600 36.365,187.600 36.626 C 187.600 36.888,187.321 37.334,186.980 37.616 C 186.639 37.899,186.010 38.900,185.581 39.841 C 185.153 40.782,184.621 41.663,184.400 41.800 C 184.179 41.937,183.639 42.837,183.200 43.800 C 182.761 44.763,182.221 45.663,182.000 45.800 C 181.779 45.937,181.239 46.837,180.800 47.800 C 180.361 48.763,179.826 49.660,179.612 49.793 C 179.397 49.925,178.908 50.701,178.526 51.517 C 178.143 52.333,177.603 53.233,177.325 53.519 C 177.047 53.804,176.507 54.704,176.125 55.519 C 175.743 56.333,175.203 57.233,174.925 57.519 C 174.647 57.804,174.107 58.704,173.725 59.519 C 173.343 60.333,172.803 61.233,172.525 61.519 C 172.247 61.804,171.706 62.704,171.323 63.519 C 170.940 64.333,170.305 65.349,169.913 65.775 C 169.521 66.202,169.200 66.787,169.200 67.075 C 169.200 67.364,169.020 67.600,168.800 67.600 C 168.580 67.600,168.400 67.960,168.400 68.400 C 168.400 68.840,168.220 69.200,168.000 69.200 C 167.780 69.200,167.600 69.436,167.600 69.725 C 167.600 70.013,167.240 70.636,166.800 71.108 C 166.360 71.580,166.000 72.244,166.000 72.583 C 166.000 72.922,165.820 73.200,165.600 73.200 C 165.380 73.200,165.200 73.436,165.200 73.725 C 165.200 74.013,164.840 74.636,164.400 75.108 C 163.960 75.580,163.600 76.244,163.600 76.583 C 163.600 76.922,163.420 77.200,163.200 77.200 C 162.980 77.200,162.800 77.436,162.800 77.725 C 162.800 78.013,162.440 78.636,162.000 79.108 C 161.560 79.580,161.200 80.244,161.200 80.583 C 161.200 80.922,161.048 81.200,160.863 81.200 C 160.677 81.200,160.094 82.055,159.565 83.100 C 159.037 84.145,158.383 85.233,158.112 85.519 C 157.841 85.804,157.307 86.704,156.925 87.519 C 156.543 88.333,156.003 89.233,155.725 89.519 C 155.447 89.804,154.906 90.704,154.523 91.519 C 154.140 92.333,153.505 93.349,153.113 93.775 C 152.721 94.202,152.400 94.765,152.400 95.026 C 152.400 95.288,152.121 95.734,151.780 96.016 C 151.439 96.299,150.810 97.300,150.381 98.241 C 149.953 99.182,149.421 100.063,149.200 100.200 C 148.979 100.337,148.439 101.237,148.000 102.200 C 147.561 103.163,147.021 104.063,146.800 104.200 C 146.579 104.337,146.039 105.237,145.600 106.200 C 145.161 107.163,144.626 108.060,144.412 108.193 C 144.197 108.325,143.708 109.101,143.326 109.917 C 142.943 110.733,142.403 111.633,142.125 111.919 C 141.847 112.204,141.307 113.104,140.925 113.919 C 140.543 114.733,140.003 115.633,139.725 115.919 C 139.447 116.204,138.907 117.104,138.525 117.919 C 138.143 118.733,137.603 119.633,137.325 119.919 C 137.047 120.204,136.506 121.104,136.123 121.919 C 135.740 122.733,135.105 123.749,134.713 124.175 C 134.321 124.602,134.000 125.187,134.000 125.475 C 134.000 125.764,133.820 126.000,133.600 126.000 C 133.380 126.000,133.200 126.360,133.200 126.800 C 133.200 127.240,133.020 127.600,132.800 127.600 C 132.580 127.600,132.400 127.836,132.400 128.125 C 132.400 128.413,132.040 129.036,131.600 129.508 C 131.160 129.980,130.800 130.644,130.800 130.983 C 130.800 131.322,130.620 131.600,130.400 131.600 C 130.180 131.600,130.000 131.836,130.000 132.125 C 130.000 132.413,129.640 133.036,129.200 133.508 C 128.760 133.980,128.400 134.644,128.400 134.983 C 128.400 135.322,128.220 135.600,128.000 135.600 C 127.780 135.600,127.600 135.836,127.600 136.125 C 127.600 136.413,127.240 137.036,126.800 137.508 C 126.360 137.980,126.000 138.644,126.000 138.983 C 126.000 139.322,125.848 139.600,125.663 139.600 C 125.477 139.600,124.894 140.455,124.365 141.500 C 123.837 142.545,123.183 143.633,122.912 143.919 C 122.641 144.204,122.107 145.104,121.725 145.919 C 121.343 146.733,120.803 147.633,120.525 147.919 C 120.247 148.204,119.706 149.104,119.323 149.919 C 118.940 150.733,118.305 151.749,117.913 152.175 C 117.521 152.602,117.200 153.165,117.200 153.426 C 117.200 153.688,116.921 154.134,116.580 154.416 C 116.239 154.699,115.610 155.700,115.181 156.641 C 114.753 157.582,114.221 158.463,114.000 158.600 C 113.779 158.737,113.239 159.637,112.800 160.600 C 112.361 161.563,111.821 162.463,111.600 162.600 C 111.379 162.737,110.839 163.637,110.400 164.600 C 109.961 165.563,109.433 166.456,109.226 166.584 C 108.668 166.929,107.600 169.213,107.600 170.061 C 107.600 170.468,107.420 170.800,107.200 170.800 C 106.980 170.800,106.800 171.070,106.800 171.400 C 106.800 171.730,106.620 172.000,106.400 172.000 C 106.180 172.000,106.000 172.360,106.000 172.800 C 106.000 173.240,105.820 173.600,105.600 173.600 C 105.380 173.600,105.200 173.836,105.200 174.125 C 105.200 174.413,104.840 175.036,104.400 175.508 C 103.960 175.980,103.600 176.644,103.600 176.983 C 103.600 177.322,103.436 177.600,103.235 177.600 C 103.034 177.600,102.749 178.320,102.600 179.200 C 102.451 180.080,102.186 180.800,102.011 180.800 C 101.836 180.800,101.593 181.115,101.471 181.500 C 101.183 182.409,99.988 184.353,99.100 185.358 C 98.715 185.794,98.400 186.387,98.400 186.675 C 98.400 186.964,98.220 187.200,98.000 187.200 C 97.780 187.200,97.600 187.478,97.600 187.817 C 97.600 188.156,97.240 188.820,96.800 189.292 C 96.360 189.764,96.000 190.387,96.000 190.675 C 96.000 190.964,95.820 191.200,95.600 191.200 C 95.380 191.200,95.200 191.478,95.200 191.817 C 95.200 192.156,94.840 192.820,94.400 193.292 C 93.960 193.764,93.600 194.387,93.600 194.675 C 93.600 194.964,93.420 195.200,93.200 195.200 C 92.980 195.200,92.800 195.532,92.800 195.938 C 92.800 196.344,92.440 197.002,92.000 197.400 C 91.560 197.798,91.200 198.289,91.200 198.490 C 91.200 198.691,90.643 199.666,89.961 200.656 C 89.280 201.646,88.816 202.550,88.930 202.664 C 89.112 202.846,107.504 194.664,117.941 189.758 C 119.998 188.791,121.766 188.000,121.870 188.000 C 121.974 188.000,123.957 187.100,126.278 186.000 C 128.598 184.900,130.578 184.000,130.678 184.000 C 130.777 184.000,132.757 183.100,135.078 182.000 C 137.398 180.900,139.378 180.000,139.478 180.000 C 139.577 180.000,141.557 179.100,143.878 178.000 C 146.198 176.900,148.174 176.000,148.268 176.000 C 148.362 176.000,150.160 175.190,152.265 174.200 C 154.369 173.210,156.158 172.400,156.239 172.400 C 156.321 172.400,158.301 171.500,160.639 170.400 C 162.977 169.300,164.957 168.400,165.039 168.400 C 165.121 168.400,167.101 167.500,169.439 166.400 C 171.777 165.300,173.757 164.400,173.839 164.400 C 173.921 164.400,175.901 163.500,178.239 162.400 C 180.577 161.300,182.553 160.400,182.630 160.400 C 182.707 160.400,184.503 159.590,186.622 158.600 C 188.740 157.610,190.537 156.800,190.614 156.800 C 190.691 156.800,192.834 155.819,195.377 154.619 L 200.000 152.439 200.000 84.819 C 200.000 24.980,199.931 17.200,199.400 17.200 C 199.067 17.200,198.800 17.556,198.800 18.000 M82.800 228.913 C 82.448 229.199,82.200 230.061,82.200 231.000 C 82.200 232.052,82.032 232.567,81.708 232.503 C 81.349 232.432,81.282 232.889,81.462 234.197 C 81.632 235.442,81.538 236.192,81.154 236.656 C 80.797 237.086,80.600 238.332,80.600 240.162 C 80.600 241.832,80.435 242.973,80.200 242.933 C 79.577 242.829,79.796 269.872,80.425 270.630 C 80.760 271.033,80.838 272.035,80.672 273.804 C 80.494 275.719,80.557 276.365,80.916 276.295 C 81.250 276.229,81.392 276.881,81.373 278.400 C 81.355 279.895,81.535 280.741,81.934 281.039 C 82.370 281.365,82.453 281.906,82.256 283.141 C 82.058 284.375,82.120 284.777,82.495 284.702 C 82.841 284.632,82.990 285.127,82.967 286.278 C 82.948 287.278,83.109 287.924,83.367 287.878 C 83.605 287.835,83.811 288.371,83.824 289.068 C 83.838 289.765,84.083 290.618,84.369 290.963 C 84.676 291.332,84.786 292.002,84.637 292.595 C 84.444 293.363,84.540 293.600,85.042 293.600 C 85.560 293.600,85.649 293.856,85.460 294.800 C 85.273 295.733,85.362 296.000,85.860 296.000 C 86.358 296.000,86.447 296.267,86.260 297.200 C 86.080 298.099,86.168 298.400,86.610 298.400 C 86.935 298.400,87.200 298.762,87.200 299.205 C 87.200 299.648,87.380 300.368,87.600 300.805 C 87.820 301.242,88.189 301.971,88.419 302.425 C 88.649 302.879,88.727 303.599,88.592 304.025 C 88.420 304.567,88.535 304.800,88.973 304.800 C 89.333 304.800,89.600 305.140,89.600 305.600 C 89.600 306.040,89.780 306.400,90.000 306.400 C 90.220 306.400,90.400 306.672,90.400 307.005 C 90.400 307.338,90.557 307.923,90.750 308.305 C 92.233 311.250,92.800 312.549,92.800 313.004 C 92.800 313.295,92.935 313.593,93.100 313.667 C 93.265 313.740,93.805 314.565,94.300 315.500 C 94.795 316.435,95.605 317.965,96.100 318.900 C 96.595 319.835,97.090 320.690,97.200 320.800 C 97.596 321.196,98.854 323.415,99.071 324.100 C 99.193 324.485,99.452 324.800,99.647 324.800 C 99.841 324.800,100.000 325.036,100.000 325.325 C 100.000 325.613,100.360 326.236,100.800 326.708 C 101.240 327.180,101.600 327.709,101.601 327.883 C 101.601 328.057,102.141 328.830,102.800 329.600 C 103.459 330.370,103.999 331.185,103.999 331.412 C 104.000 331.638,104.360 332.083,104.800 332.400 C 105.240 332.717,105.600 333.185,105.600 333.440 C 105.600 333.695,106.320 334.645,107.200 335.552 C 108.080 336.459,108.800 337.376,108.800 337.589 C 108.800 337.803,109.951 339.198,111.357 340.689 C 119.131 348.929,120.571 350.400,120.868 350.400 C 121.048 350.400,122.247 351.435,123.533 352.700 C 124.818 353.965,126.305 355.202,126.835 355.449 C 128.925 356.423,131.850 357.721,132.800 358.097 C 133.350 358.315,134.113 358.652,134.495 358.847 C 134.877 359.041,135.541 359.200,135.971 359.200 C 136.401 359.200,136.864 359.380,137.000 359.600 C 137.136 359.820,137.766 360.000,138.400 360.000 C 139.034 360.000,139.664 360.180,139.800 360.400 C 139.936 360.620,140.746 360.800,141.600 360.800 C 142.454 360.800,143.264 360.980,143.400 361.200 C 143.549 361.442,146.396 361.600,150.600 361.600 C 154.804 361.600,157.651 361.442,157.800 361.200 C 157.936 360.980,158.656 360.800,159.400 360.800 C 160.144 360.800,160.864 360.620,161.000 360.400 C 161.136 360.180,161.599 360.000,162.029 360.000 C 162.459 360.000,163.123 359.835,163.505 359.634 C 163.887 359.432,164.830 358.980,165.600 358.630 C 170.613 356.347,176.339 351.873,179.294 347.929 C 179.896 347.126,180.622 346.229,180.907 345.935 C 181.193 345.641,181.862 344.770,182.394 344.000 C 182.926 343.230,183.460 342.510,183.581 342.400 C 183.784 342.214,184.277 341.385,185.362 339.400 C 185.603 338.960,185.895 338.510,186.011 338.400 C 186.258 338.167,191.104 328.274,191.693 326.800 C 191.913 326.250,192.252 325.487,192.447 325.105 C 192.641 324.723,192.800 324.136,192.800 323.800 C 192.800 323.464,192.980 322.832,193.200 322.395 C 193.420 321.958,193.780 321.242,194.000 320.805 C 194.220 320.368,194.400 319.659,194.400 319.229 C 194.400 318.799,194.580 318.336,194.800 318.200 C 195.020 318.064,195.200 317.434,195.200 316.800 C 195.200 316.166,195.380 315.536,195.600 315.400 C 195.820 315.264,196.000 314.623,196.000 313.976 C 196.000 313.329,196.180 312.800,196.400 312.800 C 196.620 312.800,196.800 312.181,196.800 311.424 C 196.800 310.667,196.980 309.936,197.200 309.800 C 197.420 309.664,197.600 308.843,197.600 307.976 C 197.600 307.109,197.780 306.400,198.000 306.400 C 198.220 306.400,198.400 305.626,198.400 304.680 C 198.400 303.734,198.563 302.789,198.761 302.580 C 198.960 302.371,199.185 300.956,199.261 299.436 L 199.400 296.672 193.839 293.336 C 190.780 291.501,188.211 290.000,188.130 290.000 C 188.049 290.000,187.312 289.571,186.491 289.047 C 185.671 288.523,180.950 285.704,176.000 282.783 C 171.050 279.862,163.040 275.129,158.200 272.266 C 153.360 269.403,146.970 265.625,144.000 263.870 C 141.030 262.115,137.011 259.717,135.068 258.540 C 133.125 257.363,131.456 256.400,131.359 256.400 C 131.262 256.400,130.512 255.971,129.691 255.447 C 128.871 254.923,124.150 252.104,119.200 249.183 C 114.250 246.262,106.960 241.951,103.000 239.604 C 81.756 227.011,83.806 228.096,82.800 228.913 " stroke="none" fill="#67afd6" fill-rule="evenodd"></path><path id="path2" d="M200.403 84.672 C 200.394 148.217,200.353 152.192,199.697 152.965 C 199.150 153.610,199.138 153.680,199.644 153.290 C 200.376 152.727,200.631 152.814,207.001 155.790 C 209.131 156.786,210.933 157.600,211.006 157.600 C 211.079 157.600,213.056 158.500,215.400 159.600 C 217.744 160.700,219.721 161.600,219.794 161.600 C 219.867 161.600,221.660 162.410,223.778 163.400 C 225.897 164.390,227.693 165.200,227.770 165.200 C 227.847 165.200,229.823 166.100,232.161 167.200 C 234.499 168.300,236.479 169.200,236.561 169.200 C 236.643 169.200,238.623 170.100,240.961 171.200 C 243.299 172.300,245.279 173.200,245.361 173.200 C 245.443 173.200,247.423 174.100,249.761 175.200 C 252.099 176.300,254.090 177.200,254.185 177.200 C 254.280 177.200,255.672 177.823,257.279 178.585 C 265.455 182.461,310.723 202.924,311.500 203.095 C 312.630 203.344,312.671 202.569,311.600 201.200 C 311.170 200.650,310.814 200.052,310.809 199.872 C 310.804 199.692,310.260 198.759,309.600 197.800 C 308.940 196.841,308.400 195.941,308.400 195.800 C 308.400 195.659,307.860 194.759,307.200 193.800 C 306.540 192.841,306.000 191.897,306.000 191.703 C 306.000 191.509,305.679 191.002,305.287 190.575 C 304.895 190.149,304.260 189.133,303.876 188.317 C 303.493 187.501,303.008 186.729,302.800 186.600 C 302.592 186.471,302.116 185.699,301.744 184.883 C 301.371 184.067,300.806 183.094,300.488 182.719 C 299.821 181.933,298.000 178.427,298.000 177.929 C 298.000 177.744,297.460 177.028,296.800 176.337 C 296.140 175.646,295.600 174.767,295.600 174.383 C 295.600 173.999,295.060 173.107,294.400 172.400 C 293.740 171.693,293.200 170.864,293.200 170.558 C 293.200 170.251,293.041 170.000,292.847 170.000 C 292.652 170.000,292.393 169.685,292.271 169.300 C 292.054 168.615,290.796 166.396,290.400 166.000 C 290.004 165.604,288.746 163.385,288.529 162.700 C 288.407 162.315,288.148 162.000,287.953 162.000 C 287.759 162.000,287.600 161.807,287.600 161.572 C 287.600 161.337,287.060 160.359,286.400 159.400 C 285.740 158.441,285.200 157.541,285.200 157.400 C 285.200 157.259,284.660 156.359,284.000 155.400 C 283.340 154.441,282.800 153.541,282.800 153.400 C 282.800 153.259,282.260 152.359,281.600 151.400 C 280.940 150.441,280.400 149.541,280.400 149.400 C 280.400 149.259,279.860 148.359,279.200 147.400 C 278.540 146.441,278.000 145.541,278.000 145.400 C 278.000 145.259,277.460 144.359,276.800 143.400 C 276.140 142.441,275.600 141.541,275.600 141.400 C 275.600 141.259,275.060 140.359,274.400 139.400 C 273.740 138.441,273.200 137.541,273.200 137.400 C 273.200 137.259,272.660 136.359,272.000 135.400 C 271.340 134.441,270.800 133.497,270.800 133.303 C 270.800 133.109,270.479 132.602,270.087 132.175 C 269.695 131.749,269.060 130.733,268.676 129.917 C 268.293 129.101,267.803 128.325,267.588 128.193 C 267.374 128.060,266.839 127.163,266.400 126.200 C 265.961 125.237,265.421 124.337,265.200 124.200 C 264.979 124.063,264.439 123.163,264.000 122.200 C 263.561 121.237,263.033 120.344,262.826 120.216 C 262.620 120.089,262.202 119.493,261.899 118.892 C 261.162 117.434,260.247 115.847,260.000 115.600 C 259.890 115.490,259.575 114.995,259.300 114.500 C 259.025 114.005,258.575 113.195,258.300 112.700 C 258.025 112.205,257.710 111.710,257.600 111.600 C 257.413 111.413,256.878 110.502,255.838 108.600 C 255.597 108.160,255.310 107.710,255.200 107.600 C 254.804 107.204,253.546 104.985,253.329 104.300 C 253.207 103.915,252.948 103.600,252.753 103.600 C 252.559 103.600,252.400 103.407,252.400 103.172 C 252.400 102.937,251.860 101.959,251.200 101.000 C 250.540 100.041,250.000 99.141,250.000 99.000 C 250.000 98.859,249.460 97.959,248.800 97.000 C 248.140 96.041,247.600 95.141,247.600 95.000 C 247.600 94.859,247.060 93.959,246.400 93.000 C 245.740 92.041,245.200 91.141,245.200 91.000 C 245.200 90.859,244.660 89.959,244.000 89.000 C 243.340 88.041,242.800 87.141,242.800 87.000 C 242.800 86.859,242.260 85.959,241.600 85.000 C 240.940 84.041,240.400 83.141,240.400 83.000 C 240.400 82.859,239.860 81.959,239.200 81.000 C 238.540 80.041,238.000 79.141,238.000 79.000 C 238.000 78.859,237.460 77.959,236.800 77.000 C 236.140 76.041,235.600 75.097,235.600 74.903 C 235.600 74.709,235.279 74.202,234.887 73.775 C 234.495 73.349,233.860 72.333,233.476 71.517 C 233.093 70.701,232.603 69.925,232.388 69.793 C 232.174 69.660,231.639 68.763,231.200 67.800 C 230.761 66.837,230.221 65.937,230.000 65.800 C 229.779 65.663,229.239 64.763,228.800 63.800 C 228.361 62.837,227.833 61.944,227.626 61.816 C 227.420 61.689,227.002 61.093,226.699 60.492 C 225.962 59.034,225.047 57.447,224.800 57.200 C 224.690 57.090,224.403 56.640,224.162 56.200 C 223.122 54.298,222.587 53.387,222.400 53.200 C 222.290 53.090,221.975 52.595,221.700 52.100 C 221.425 51.605,220.975 50.795,220.700 50.300 C 220.425 49.805,220.110 49.310,220.000 49.200 C 219.604 48.804,218.346 46.585,218.129 45.900 C 218.007 45.515,217.748 45.200,217.553 45.200 C 217.359 45.200,217.200 45.007,217.200 44.772 C 217.200 44.537,216.660 43.559,216.000 42.600 C 215.340 41.641,214.800 40.741,214.800 40.600 C 214.800 40.459,214.260 39.559,213.600 38.600 C 212.940 37.641,212.400 36.741,212.400 36.600 C 212.400 36.459,211.860 35.559,211.200 34.600 C 210.540 33.641,210.000 32.741,210.000 32.600 C 210.000 32.459,209.460 31.559,208.800 30.600 C 208.140 29.641,207.600 28.741,207.600 28.600 C 207.600 28.459,207.060 27.559,206.400 26.600 C 205.740 25.641,205.200 24.736,205.200 24.590 C 205.200 24.443,204.861 23.846,204.447 23.262 C 203.332 21.688,201.598 18.700,201.336 17.900 C 201.210 17.515,200.951 17.200,200.760 17.200 C 200.566 17.200,200.409 46.911,200.403 84.672 M196.600 154.379 C 192.146 156.388,190.400 157.240,190.400 157.402 C 190.400 157.648,191.636 157.141,195.600 155.268 C 198.925 153.696,199.763 152.951,196.600 154.379 M187.800 158.379 C 183.346 160.388,181.600 161.240,181.600 161.402 C 181.600 161.648,182.836 161.141,186.800 159.268 C 190.125 157.696,190.963 156.951,187.800 158.379 M179.000 162.379 C 174.546 164.388,172.800 165.240,172.800 165.402 C 172.800 165.648,174.036 165.141,178.000 163.268 C 181.325 161.696,182.163 160.951,179.000 162.379 M170.200 166.379 C 165.746 168.388,164.000 169.240,164.000 169.402 C 164.000 169.648,165.236 169.141,169.200 167.268 C 172.525 165.696,173.363 164.951,170.200 166.379 M161.400 170.379 C 156.946 172.388,155.200 173.240,155.200 173.402 C 155.200 173.648,156.436 173.141,160.400 171.268 C 163.725 169.696,164.563 168.951,161.400 170.379 M104.860 173.042 C 104.131 173.866,104.600 174.257,105.381 173.476 C 105.721 173.136,106.000 172.754,106.000 172.629 C 106.000 172.209,105.406 172.424,104.860 173.042 M151.307 174.951 C 148.507 176.211,147.473 176.825,148.233 176.776 C 148.791 176.740,155.059 173.671,154.600 173.659 C 154.380 173.653,152.898 174.234,151.307 174.951 M102.500 176.998 C 101.660 177.952,101.945 178.610,102.800 177.692 C 103.240 177.220,103.600 176.736,103.600 176.617 C 103.600 176.218,103.005 176.424,102.500 176.998 M144.000 178.230 C 143.450 178.533,142.128 179.158,141.061 179.618 C 139.995 180.079,139.208 180.541,139.312 180.645 C 139.416 180.749,141.008 180.122,142.851 179.252 C 144.693 178.381,145.930 177.671,145.600 177.674 C 145.270 177.676,144.550 177.926,144.000 178.230 M100.736 180.800 C 100.444 181.460,100.069 182.000,99.902 182.000 C 99.736 182.000,99.600 182.278,99.600 182.617 C 99.600 182.956,99.240 183.620,98.800 184.092 C 98.360 184.564,98.000 185.112,98.000 185.309 C 98.000 185.786,98.847 185.489,98.908 184.990 C 98.934 184.775,99.298 184.240,99.716 183.800 C 100.354 183.129,101.223 181.556,101.373 180.800 C 101.394 180.690,101.555 180.375,101.730 180.100 C 101.904 179.825,101.872 179.600,101.657 179.600 C 101.443 179.600,101.028 180.140,100.736 180.800 M135.200 182.230 C 134.650 182.533,133.328 183.158,132.261 183.618 C 131.195 184.079,130.408 184.541,130.512 184.645 C 130.616 184.749,132.208 184.122,134.051 183.252 C 135.893 182.381,137.130 181.671,136.800 181.674 C 136.470 181.676,135.750 181.926,135.200 182.230 M126.400 186.230 C 125.850 186.533,124.528 187.158,123.461 187.618 C 122.395 188.079,121.608 188.541,121.712 188.645 C 121.816 188.749,123.408 188.122,125.251 187.252 C 127.093 186.381,128.330 185.671,128.000 185.674 C 127.670 185.676,126.950 185.926,126.400 186.230 M97.191 186.500 C 97.186 186.775,96.830 187.450,96.400 188.000 C 95.970 188.550,95.614 189.150,95.609 189.333 C 95.596 189.804,96.456 189.465,96.480 188.990 C 96.490 188.775,96.837 188.171,97.250 187.646 C 97.662 187.121,98.000 186.536,98.000 186.346 C 98.000 185.794,97.201 185.946,97.191 186.500 M117.600 190.230 C 117.050 190.533,115.728 191.158,114.661 191.618 C 113.595 192.079,112.808 192.541,112.912 192.645 C 113.016 192.749,114.608 192.122,116.451 191.252 C 118.293 190.381,119.530 189.671,119.200 189.674 C 118.870 189.676,118.150 189.926,117.600 190.230 M94.791 190.500 C 94.786 190.775,94.430 191.450,94.000 192.000 C 93.570 192.550,93.214 193.150,93.209 193.333 C 93.196 193.804,94.056 193.465,94.080 192.990 C 94.090 192.775,94.437 192.171,94.850 191.646 C 95.262 191.121,95.600 190.536,95.600 190.346 C 95.600 189.794,94.801 189.946,94.791 190.500 M109.200 194.018 C 108.870 194.222,107.548 194.855,106.262 195.424 C 104.977 195.992,104.009 196.543,104.113 196.646 C 104.217 196.750,105.808 196.122,107.651 195.252 C 109.493 194.381,110.730 193.664,110.400 193.658 C 110.070 193.652,109.530 193.814,109.200 194.018 M92.391 194.500 C 92.386 194.775,92.030 195.450,91.600 196.000 C 90.744 197.095,90.605 197.600,91.160 197.600 C 91.471 197.600,93.200 194.708,93.200 194.188 C 93.200 193.740,92.399 194.049,92.391 194.500 M101.400 197.598 C 100.520 198.016,98.748 198.830,97.462 199.407 C 96.177 199.985,95.210 200.543,95.314 200.647 C 95.418 200.752,97.370 199.943,99.652 198.850 C 101.933 197.758,103.620 196.859,103.400 196.852 C 103.180 196.845,102.280 197.181,101.400 197.598 M90.000 198.800 C 90.000 199.240,89.790 199.600,89.533 199.600 C 89.277 199.600,89.182 199.716,89.324 199.857 C 89.680 200.214,90.800 199.223,90.800 198.551 C 90.800 198.248,90.620 198.000,90.400 198.000 C 90.180 198.000,90.000 198.360,90.000 198.800 M88.400 201.000 C 88.400 201.367,88.594 201.602,88.830 201.523 C 89.067 201.445,89.260 201.209,89.260 201.000 C 89.260 200.791,89.067 200.556,88.830 200.477 C 88.594 200.398,88.400 200.633,88.400 201.000 M91.800 202.000 C 89.041 203.325,88.400 203.438,88.400 202.600 C 88.400 201.755,87.883 201.855,87.283 202.816 C 86.549 203.991,87.010 204.424,88.456 203.921 C 90.124 203.339,95.103 200.849,94.600 200.848 C 94.380 200.848,93.120 201.366,91.800 202.000 M82.000 227.400 C 82.000 227.791,82.383 227.996,83.100 227.987 C 84.154 227.975,84.167 227.950,83.424 227.387 C 82.434 226.639,82.000 226.643,82.000 227.400 M311.000 231.141 C 308.140 232.862,304.270 235.173,302.400 236.275 C 297.080 239.410,281.727 248.496,273.800 253.200 C 269.840 255.550,262.550 259.864,257.600 262.787 C 252.650 265.710,244.640 270.446,239.800 273.311 C 234.960 276.177,229.560 279.369,227.800 280.406 C 226.040 281.443,221.270 284.268,217.200 286.684 C 201.111 296.235,200.746 296.435,199.861 296.218 C 199.388 296.102,199.225 296.111,199.500 296.237 C 199.785 296.368,200.000 297.193,200.000 298.153 C 200.000 299.081,200.163 300.011,200.361 300.220 C 200.560 300.429,200.817 301.410,200.932 302.400 C 201.048 303.390,201.345 305.100,201.593 306.200 C 201.841 307.300,202.144 308.787,202.266 309.504 C 202.388 310.221,202.649 310.906,202.844 311.027 C 203.040 311.148,203.200 311.629,203.200 312.095 C 203.200 312.996,203.865 315.339,204.449 316.495 C 204.642 316.877,204.800 317.541,204.800 317.971 C 204.800 318.401,204.980 318.864,205.200 319.000 C 205.420 319.136,205.600 319.676,205.600 320.200 C 205.600 320.724,205.780 321.264,206.000 321.400 C 206.220 321.536,206.400 321.999,206.400 322.429 C 206.400 322.859,206.559 323.523,206.753 323.905 C 206.948 324.287,207.284 325.050,207.500 325.600 C 208.455 328.029,208.820 328.845,210.815 333.000 C 211.976 335.420,213.033 337.490,213.163 337.600 C 213.294 337.710,213.840 338.610,214.378 339.600 C 214.915 340.590,215.590 341.638,215.878 341.929 C 216.165 342.219,216.400 342.611,216.400 342.800 C 216.400 342.989,216.625 343.381,216.900 343.671 C 217.175 343.962,217.931 344.920,218.580 345.800 C 222.926 351.692,233.687 360.000,236.972 360.000 C 237.291 360.000,237.651 360.159,237.771 360.354 C 237.987 360.703,238.472 360.829,242.800 361.657 C 246.120 362.292,253.227 362.533,253.733 362.027 C 253.968 361.792,255.103 361.600,256.256 361.600 C 257.409 361.600,258.464 361.420,258.600 361.200 C 258.736 360.980,259.379 360.800,260.029 360.800 C 260.679 360.800,261.523 360.642,261.905 360.449 C 262.287 360.256,263.320 359.884,264.200 359.623 C 265.080 359.361,266.205 358.979,266.700 358.774 C 267.195 358.568,268.005 358.231,268.500 358.025 C 270.386 357.240,271.440 357.068,270.900 357.635 C 270.332 358.232,270.245 358.800,270.722 358.800 C 270.899 358.800,271.731 358.170,272.572 357.400 C 273.413 356.630,273.982 356.000,273.836 356.000 C 273.537 356.000,275.223 354.386,277.387 352.600 C 279.216 351.091,287.540 342.671,289.053 340.800 C 290.969 338.430,292.680 336.813,292.968 337.101 C 293.119 337.252,293.120 337.056,292.970 336.665 C 292.791 336.199,292.990 335.683,293.551 335.160 C 294.021 334.722,294.716 333.877,295.096 333.282 C 295.475 332.687,296.104 331.965,296.493 331.677 C 296.882 331.390,297.200 330.895,297.200 330.577 C 297.200 330.260,297.380 330.000,297.600 330.000 C 297.820 330.000,298.000 329.730,298.000 329.400 C 298.000 329.070,298.158 328.800,298.351 328.800 C 298.545 328.800,298.927 328.260,299.200 327.600 C 299.473 326.940,299.855 326.400,300.049 326.400 C 300.242 326.400,300.400 326.164,300.400 325.875 C 300.400 325.587,300.760 324.964,301.200 324.492 C 301.640 324.020,302.000 323.446,302.000 323.217 C 302.000 322.988,302.146 322.800,302.325 322.800 C 302.504 322.800,302.898 322.170,303.200 321.400 C 303.502 320.630,303.896 320.000,304.075 320.000 C 304.254 320.000,304.400 319.640,304.400 319.200 C 304.400 318.760,304.580 318.400,304.800 318.400 C 305.020 318.400,305.200 318.130,305.200 317.800 C 305.200 317.470,305.380 317.200,305.600 317.200 C 305.820 317.200,305.999 316.975,305.997 316.700 C 305.995 316.299,308.667 310.528,310.440 307.105 C 310.638 306.723,310.800 306.138,310.800 305.805 C 310.800 305.472,310.980 305.200,311.200 305.200 C 311.420 305.200,311.600 304.851,311.600 304.424 C 311.600 303.997,311.780 303.536,312.000 303.400 C 312.220 303.264,312.400 302.713,312.400 302.176 C 312.400 301.639,312.580 301.200,312.800 301.200 C 313.020 301.200,313.200 300.649,313.200 299.976 C 313.200 299.263,313.367 298.856,313.600 299.000 C 313.833 299.144,314.000 298.745,314.000 298.047 C 314.000 297.387,314.180 296.736,314.400 296.600 C 314.620 296.464,314.800 295.924,314.800 295.400 C 314.800 294.876,314.980 294.336,315.200 294.200 C 315.420 294.064,315.600 293.423,315.600 292.776 C 315.600 292.129,315.780 291.600,316.000 291.600 C 316.220 291.600,316.400 290.970,316.400 290.200 C 316.400 289.430,316.580 288.800,316.800 288.800 C 317.020 288.800,317.200 288.080,317.200 287.200 C 317.200 286.320,317.380 285.600,317.600 285.600 C 317.820 285.600,318.000 284.801,318.000 283.824 C 318.000 282.847,318.180 281.936,318.400 281.800 C 318.620 281.664,318.800 280.753,318.800 279.776 C 318.800 278.799,318.980 278.000,319.200 278.000 C 319.428 278.000,319.600 276.808,319.600 275.224 C 319.600 273.697,319.780 272.336,320.000 272.200 C 320.225 272.061,320.400 270.137,320.400 267.800 C 320.400 265.463,320.575 263.539,320.800 263.400 C 321.040 263.251,321.200 260.537,321.200 256.600 C 321.200 252.663,321.040 249.949,320.800 249.800 C 320.575 249.661,320.400 247.737,320.400 245.400 C 320.400 243.063,320.225 241.139,320.000 241.000 C 319.780 240.864,319.600 239.593,319.600 238.176 C 319.600 236.725,319.425 235.600,319.200 235.600 C 318.980 235.600,318.800 234.700,318.800 233.600 C 318.800 232.500,318.630 231.600,318.423 231.600 C 318.216 231.600,317.991 230.835,317.923 229.900 C 317.743 227.410,316.970 227.548,311.000 231.141 M81.412 229.717 C 81.241 230.112,81.213 230.547,81.351 230.684 C 81.757 231.090,82.084 230.520,81.897 229.731 C 81.732 229.033,81.710 229.032,81.412 229.717 M80.700 233.431 C 80.535 233.597,80.400 234.099,80.400 234.547 C 80.400 235.135,80.521 235.239,80.838 234.922 C 81.078 234.682,81.213 234.180,81.138 233.807 C 81.062 233.433,80.865 233.264,80.700 233.431 M79.867 238.267 C 79.452 238.682,79.553 240.000,80.000 240.000 C 80.220 240.000,80.400 239.550,80.400 239.000 C 80.400 237.953,80.308 237.826,79.867 238.267 M79.100 244.629 C 78.935 244.796,78.800 245.659,78.800 246.547 C 78.800 247.691,78.924 248.036,79.227 247.733 C 79.462 247.498,79.597 246.635,79.527 245.815 C 79.457 244.995,79.265 244.461,79.100 244.629 M78.800 266.776 C 78.800 267.423,78.980 268.064,79.200 268.200 C 79.438 268.347,79.600 267.871,79.600 267.024 C 79.600 266.241,79.420 265.600,79.200 265.600 C 78.980 265.600,78.800 266.129,78.800 266.776 M79.665 274.141 C 79.717 274.915,79.904 275.459,80.080 275.351 C 80.544 275.064,80.473 273.292,79.985 272.991 C 79.723 272.829,79.605 273.252,79.665 274.141 M80.489 279.371 C 80.534 279.905,80.712 280.255,80.885 280.148 C 81.340 279.866,81.273 278.400,80.804 278.400 C 80.587 278.400,80.445 278.837,80.489 279.371 M81.289 283.371 C 81.334 283.905,81.512 284.255,81.685 284.148 C 82.140 283.866,82.073 282.400,81.604 282.400 C 81.387 282.400,81.245 282.837,81.289 283.371 M82.000 286.576 C 82.000 286.893,82.180 287.264,82.400 287.400 C 82.620 287.536,82.800 287.277,82.800 286.824 C 82.800 286.371,82.620 286.000,82.400 286.000 C 82.180 286.000,82.000 286.259,82.000 286.576 M82.908 289.972 C 82.940 290.397,83.109 290.656,83.283 290.549 C 83.727 290.275,83.680 289.200,83.225 289.200 C 83.019 289.200,82.876 289.548,82.908 289.972 M101.693 330.000 C 101.968 330.440,102.331 330.800,102.500 330.800 C 102.669 330.800,102.582 330.440,102.307 330.000 C 102.032 329.560,101.669 329.200,101.500 329.200 C 101.331 329.200,101.418 329.560,101.693 330.000 M106.493 336.400 C 106.768 336.840,107.131 337.200,107.300 337.200 C 107.469 337.200,107.382 336.840,107.107 336.400 C 106.832 335.960,106.469 335.600,106.300 335.600 C 106.131 335.600,106.218 335.960,106.493 336.400 M110.196 340.796 C 110.826 341.454,111.419 341.914,111.513 341.820 C 111.722 341.612,109.756 339.600,109.343 339.600 C 109.182 339.600,109.566 340.138,110.196 340.796 M123.251 353.900 C 123.942 354.781,124.954 355.579,125.142 355.392 C 125.323 355.211,123.329 353.200,122.969 353.200 C 122.822 353.200,122.949 353.515,123.251 353.900 M126.822 356.737 C 126.861 357.201,129.231 358.903,129.484 358.649 C 129.833 358.301,128.493 356.918,127.574 356.677 C 127.148 356.566,126.810 356.593,126.822 356.737 M130.000 359.053 C 130.000 359.477,132.166 361.199,132.700 361.200 C 132.975 361.200,133.200 361.337,133.200 361.504 C 133.200 361.935,134.832 362.901,135.103 362.630 C 135.411 362.322,133.992 360.800,133.396 360.800 C 133.133 360.800,132.431 360.350,131.838 359.800 C 130.804 358.842,130.000 358.515,130.000 359.053 M269.412 359.180 C 269.265 359.418,269.001 359.524,268.826 359.416 C 268.650 359.308,268.168 359.593,267.754 360.050 C 267.341 360.508,266.506 361.138,265.901 361.451 C 265.295 361.764,264.800 362.196,264.800 362.410 C 264.800 363.025,265.376 362.869,266.308 362.000 C 266.780 361.560,267.309 361.194,267.483 361.187 C 267.981 361.167,270.116 359.183,269.886 358.953 C 269.773 358.840,269.560 358.942,269.412 359.180 M135.600 363.104 C 135.600 363.567,137.242 364.491,137.538 364.195 C 137.682 364.052,137.450 363.679,137.023 363.367 C 136.167 362.741,135.600 362.636,135.600 363.104 M262.977 363.367 C 262.550 363.679,262.318 364.052,262.462 364.195 C 262.758 364.491,264.400 363.567,264.400 363.104 C 264.400 362.636,263.833 362.741,262.977 363.367 M138.000 364.704 C 138.000 365.129,139.630 366.103,139.896 365.837 C 140.223 365.511,139.184 364.400,138.551 364.400 C 138.248 364.400,138.000 364.537,138.000 364.704 M260.577 364.967 C 260.150 365.279,259.918 365.652,260.062 365.795 C 260.358 366.091,262.000 365.167,262.000 364.704 C 262.000 364.236,261.433 364.341,260.577 364.967 M140.576 366.039 C 140.451 366.241,140.676 366.530,141.075 366.683 C 141.474 366.835,142.154 367.288,142.586 367.690 C 143.018 368.091,143.588 368.337,143.853 368.235 C 144.117 368.134,144.433 368.309,144.554 368.625 C 144.791 369.242,145.600 369.424,145.600 368.860 C 145.600 368.315,140.826 365.635,140.576 366.039 M257.300 366.870 C 256.170 367.569,255.577 368.400,256.209 368.400 C 256.489 368.400,259.600 366.333,259.600 366.147 C 259.600 365.785,258.490 366.134,257.300 366.870 M254.588 368.420 C 254.207 369.035,254.728 369.432,255.242 368.918 C 255.529 368.631,255.536 368.407,255.262 368.239 C 255.039 368.100,254.735 368.182,254.588 368.420 M146.199 369.201 C 146.085 369.386,146.561 369.821,147.257 370.169 C 148.737 370.907,148.800 370.917,148.800 370.429 C 148.800 369.904,146.451 368.795,146.199 369.201 M251.200 370.400 C 251.200 370.620,251.470 370.800,251.800 370.800 C 252.130 370.800,252.400 370.620,252.400 370.400 C 252.400 370.180,252.130 370.000,251.800 370.000 C 251.470 370.000,251.200 370.180,251.200 370.400 M149.200 371.200 C 149.200 371.420,149.470 371.600,149.800 371.600 C 150.130 371.600,150.400 371.420,150.400 371.200 C 150.400 370.980,150.130 370.800,149.800 370.800 C 149.470 370.800,149.200 370.980,149.200 371.200 M249.600 371.200 C 249.600 371.420,249.870 371.600,250.200 371.600 C 250.530 371.600,250.800 371.420,250.800 371.200 C 250.800 370.980,250.530 370.800,250.200 370.800 C 249.870 370.800,249.600 370.980,249.600 371.200 M151.039 371.538 C 150.900 371.761,150.982 372.065,151.220 372.212 C 151.835 372.593,152.232 372.072,151.718 371.558 C 151.431 371.271,151.207 371.264,151.039 371.538 M248.000 372.000 C 248.000 372.220,248.270 372.400,248.600 372.400 C 248.930 372.400,249.200 372.220,249.200 372.000 C 249.200 371.780,248.930 371.600,248.600 371.600 C 248.270 371.600,248.000 371.780,248.000 372.000 M152.639 372.338 C 152.500 372.561,152.582 372.865,152.820 373.012 C 153.435 373.393,153.832 372.872,153.318 372.358 C 153.031 372.071,152.807 372.064,152.639 372.338 M246.588 372.420 C 246.207 373.035,246.728 373.432,247.242 372.918 C 247.529 372.631,247.536 372.407,247.262 372.239 C 247.039 372.100,246.735 372.182,246.588 372.420 M154.000 373.213 C 154.000 373.439,154.315 373.723,154.700 373.842 C 155.085 373.961,155.713 374.225,156.095 374.429 C 157.047 374.938,157.698 374.894,157.512 374.335 C 157.426 374.079,157.028 373.822,156.626 373.763 C 156.224 373.704,155.703 373.463,155.468 373.228 C 154.922 372.682,154.000 372.673,154.000 373.213 M243.000 373.600 C 242.340 374.008,241.395 374.355,240.900 374.371 C 240.405 374.387,240.000 374.580,240.000 374.800 C 240.000 375.020,239.561 375.200,239.024 375.200 C 238.487 375.200,237.936 375.380,237.800 375.600 C 237.664 375.820,237.218 376.000,236.809 376.000 C 235.960 376.000,233.606 377.248,233.603 377.700 C 233.599 378.147,234.690 378.063,235.705 377.538 C 237.579 376.569,238.007 376.400,238.582 376.400 C 238.909 376.400,239.817 376.040,240.600 375.600 C 241.383 375.160,242.261 374.800,242.551 374.800 C 243.343 374.800,245.600 373.594,245.600 373.171 C 245.600 372.580,244.304 372.794,243.000 373.600 M158.267 374.667 C 157.727 375.207,158.026 375.600,158.976 375.600 C 159.513 375.600,160.064 375.780,160.200 376.000 C 160.525 376.526,161.600 376.516,161.600 375.987 C 161.600 375.761,161.285 375.477,160.900 375.358 C 160.515 375.239,159.887 374.975,159.505 374.771 C 158.677 374.328,158.610 374.323,158.267 374.667 M162.400 376.413 C 162.400 376.928,163.540 377.394,163.906 377.028 C 164.055 376.879,163.912 376.589,163.588 376.384 C 162.814 375.895,162.400 375.905,162.400 376.413 M164.600 377.600 C 164.736 377.820,165.197 378.000,165.624 378.000 C 166.051 378.000,166.400 377.820,166.400 377.600 C 166.400 377.380,165.939 377.200,165.376 377.200 C 164.796 377.200,164.460 377.373,164.600 377.600 M167.698 377.867 C 166.976 378.156,167.501 378.800,168.457 378.800 C 168.904 378.800,169.196 378.587,169.108 378.325 C 168.921 377.762,168.392 377.590,167.698 377.867 M229.800 378.096 C 228.920 378.314,227.840 378.637,227.400 378.815 C 226.960 378.992,226.105 379.245,225.500 379.377 C 224.028 379.696,224.096 380.400,225.600 380.400 C 226.260 380.400,226.800 380.220,226.800 380.000 C 226.800 379.780,227.184 379.600,227.654 379.600 C 228.385 379.600,230.138 379.205,232.389 378.533 C 232.961 378.362,232.205 377.522,231.600 377.657 C 231.490 377.681,230.680 377.879,229.800 378.096 M170.280 378.653 C 169.718 379.215,170.024 379.600,171.033 379.600 C 171.682 379.600,172.005 379.414,171.900 379.100 C 171.708 378.522,170.692 378.241,170.280 378.653 M173.700 379.460 C 172.764 379.847,173.196 380.400,174.433 380.400 C 175.242 380.400,175.609 380.228,175.500 379.900 C 175.316 379.347,174.473 379.141,173.700 379.460 M176.898 380.266 C 176.000 380.628,176.812 381.200,178.224 381.200 C 179.653 381.200,180.068 380.665,178.967 380.243 C 178.247 379.966,177.623 379.973,176.898 380.266 M221.300 380.265 C 220.379 380.636,220.787 381.200,221.976 381.200 C 223.307 381.200,223.918 380.608,222.965 380.242 C 222.259 379.971,222.020 379.974,221.300 380.265 M181.298 381.066 C 180.400 381.428,181.212 382.000,182.624 382.000 C 184.175 382.000,184.467 381.419,183.100 381.052 C 182.089 380.781,182.001 380.782,181.298 381.066 M216.700 381.076 C 215.419 381.411,215.978 382.000,217.576 382.000 C 219.237 382.000,220.032 381.451,218.965 381.042 C 218.286 380.782,217.798 380.789,216.700 381.076 M186.695 381.877 C 186.307 381.978,186.093 382.227,186.219 382.430 C 186.512 382.905,190.800 382.917,190.800 382.443 C 190.800 381.704,188.549 381.393,186.695 381.877 M209.700 381.865 C 209.425 381.976,209.200 382.232,209.200 382.433 C 209.200 382.904,213.481 382.916,213.772 382.445 C 214.171 381.799,210.988 381.345,209.700 381.865 " stroke="none" fill="#4c6d9c" fill-rule="evenodd"></path><path id="path3" d="M199.400 153.392 C 198.960 153.695,187.440 159.008,173.800 165.200 C 160.160 171.391,147.020 177.360,144.600 178.464 C 138.536 181.231,133.487 183.529,127.600 186.200 C 120.355 189.487,115.698 191.611,109.691 194.365 C 106.771 195.704,104.316 196.800,104.236 196.800 C 104.156 196.800,102.177 197.700,99.839 198.800 C 97.501 199.900,95.518 200.800,95.433 200.800 C 95.348 200.800,93.756 201.520,91.896 202.400 C 90.035 203.280,88.308 204.000,88.057 204.000 C 87.342 204.000,87.522 204.797,88.300 205.080 C 88.685 205.220,89.752 205.844,90.672 206.467 C 91.592 207.090,92.459 207.600,92.600 207.600 C 92.741 207.600,93.608 208.101,94.528 208.712 C 95.448 209.324,96.740 210.083,97.400 210.400 C 98.060 210.717,99.352 211.476,100.272 212.088 C 101.192 212.699,102.066 213.200,102.214 213.200 C 102.363 213.200,103.257 213.722,104.202 214.359 C 105.147 214.997,106.523 215.645,107.260 215.799 C 108.606 216.080,110.110 216.930,127.800 227.401 C 133.080 230.526,141.450 235.476,146.400 238.400 C 151.350 241.324,159.720 246.274,165.000 249.399 C 170.280 252.524,176.850 256.395,179.600 258.000 C 182.350 259.605,187.120 262.399,190.200 264.208 C 198.033 268.808,199.433 269.600,199.735 269.600 C 199.881 269.600,200.000 243.601,200.000 211.824 C 200.000 178.350,200.150 153.954,200.357 153.826 C 200.554 153.705,203.929 155.064,207.857 156.846 C 274.657 187.147,311.095 203.755,311.495 204.084 C 312.104 204.583,313.324 204.172,313.113 203.538 C 313.028 203.284,312.428 203.043,311.779 203.003 C 310.849 202.946,271.083 185.129,257.279 178.585 C 255.672 177.823,254.280 177.200,254.185 177.200 C 254.090 177.200,252.099 176.300,249.761 175.200 C 247.423 174.100,245.443 173.200,245.361 173.200 C 245.279 173.200,243.299 172.300,240.961 171.200 C 238.623 170.100,236.643 169.200,236.561 169.200 C 236.479 169.200,234.499 168.300,232.161 167.200 C 229.823 166.100,227.847 165.200,227.770 165.200 C 227.693 165.200,225.897 164.390,223.778 163.400 C 221.660 162.410,219.867 161.600,219.794 161.600 C 219.721 161.600,217.744 160.700,215.400 159.600 C 213.056 158.500,211.079 157.600,211.006 157.600 C 210.933 157.600,209.131 156.786,207.001 155.790 C 203.372 154.095,200.368 152.773,200.251 152.821 C 200.223 152.833,199.840 153.090,199.400 153.392 M84.086 227.800 C 84.895 228.350,85.699 228.800,85.872 228.800 C 86.044 228.800,85.523 228.350,84.714 227.800 C 83.905 227.250,83.101 226.800,82.928 226.800 C 82.756 226.800,83.277 227.250,84.086 227.800 M316.329 227.300 C 315.754 227.844,311.661 230.400,311.365 230.400 C 311.265 230.400,310.512 230.826,309.691 231.347 C 308.871 231.868,304.195 234.658,299.300 237.547 C 294.405 240.436,286.395 245.171,281.500 248.070 C 276.605 250.968,271.070 254.241,269.200 255.342 C 267.330 256.443,263.550 258.690,260.800 260.335 C 258.050 261.980,255.260 263.635,254.600 264.012 C 252.019 265.486,246.306 268.845,240.000 272.595 C 232.431 277.095,217.317 286.047,212.600 288.823 C 203.627 294.103,199.903 296.400,200.316 296.400 C 200.768 296.400,202.872 295.189,217.200 286.684 C 221.270 284.268,226.040 281.443,227.800 280.406 C 229.560 279.369,235.050 276.123,240.000 273.192 C 244.950 270.261,252.960 265.525,257.800 262.668 C 262.640 259.810,269.930 255.497,274.000 253.082 C 278.070 250.667,282.840 247.843,284.600 246.806 C 291.314 242.852,306.020 234.142,311.126 231.097 C 314.585 229.033,316.722 227.991,317.226 228.123 C 317.791 228.271,318.000 228.120,318.000 227.563 C 318.000 226.695,317.115 226.556,316.329 227.300 M318.000 230.376 C 318.000 231.049,318.180 231.600,318.400 231.600 C 318.620 231.600,318.800 231.161,318.800 230.624 C 318.800 230.087,318.620 229.536,318.400 229.400 C 318.167 229.256,318.000 229.663,318.000 230.376 M87.600 229.779 C 87.600 229.889,88.140 230.259,88.800 230.600 C 89.460 230.941,90.000 231.131,90.000 231.021 C 90.000 230.911,89.460 230.541,88.800 230.200 C 88.140 229.859,87.600 229.669,87.600 229.779 M91.000 231.796 C 91.894 232.539,94.428 233.909,93.800 233.310 C 93.580 233.100,92.680 232.524,91.800 232.030 C 90.920 231.535,90.560 231.430,91.000 231.796 M318.800 234.376 C 318.800 235.049,318.980 235.600,319.200 235.600 C 319.420 235.600,319.600 235.161,319.600 234.624 C 319.600 234.087,319.420 233.536,319.200 233.400 C 318.967 233.256,318.800 233.663,318.800 234.376 M95.200 234.364 C 95.750 234.814,96.380 235.183,96.600 235.185 C 97.028 235.188,96.305 234.634,95.000 233.960 C 94.469 233.685,94.536 233.821,95.200 234.364 M319.600 238.953 C 319.600 239.943,319.780 240.864,320.000 241.000 C 320.244 241.151,320.400 240.545,320.400 239.447 C 320.400 238.457,320.220 237.536,320.000 237.400 C 319.756 237.249,319.600 237.855,319.600 238.953 M106.000 240.764 C 106.550 241.214,107.180 241.583,107.400 241.585 C 107.828 241.588,107.105 241.034,105.800 240.360 C 105.269 240.085,105.336 240.221,106.000 240.764 M108.600 242.196 C 109.494 242.939,112.028 244.309,111.400 243.710 C 111.180 243.500,110.280 242.924,109.400 242.430 C 108.520 241.935,108.160 241.830,108.600 242.196 M320.400 246.553 C 320.400 248.203,320.580 249.664,320.800 249.800 C 321.053 249.956,321.200 248.945,321.200 247.047 C 321.200 245.397,321.020 243.936,320.800 243.800 C 320.547 243.644,320.400 244.655,320.400 246.553 M112.800 244.764 C 113.350 245.214,113.980 245.583,114.200 245.585 C 114.628 245.588,113.905 245.034,112.600 244.360 C 112.069 244.085,112.136 244.221,112.800 244.764 M123.600 251.164 C 124.150 251.614,124.780 251.983,125.000 251.985 C 125.428 251.988,124.705 251.434,123.400 250.760 C 122.869 250.485,122.936 250.621,123.600 251.164 M126.800 252.979 C 126.800 253.089,127.340 253.459,128.000 253.800 C 128.660 254.141,129.200 254.331,129.200 254.221 C 129.200 254.111,128.660 253.741,128.000 253.400 C 127.340 253.059,126.800 252.869,126.800 252.979 M130.400 255.164 C 130.950 255.614,131.580 255.983,131.800 255.985 C 132.228 255.988,131.505 255.434,130.200 254.760 C 129.669 254.485,129.736 254.621,130.400 255.164 M134.400 257.564 C 134.950 258.014,135.580 258.383,135.800 258.385 C 136.228 258.388,135.505 257.834,134.200 257.160 C 133.669 256.885,133.736 257.021,134.400 257.564 M141.200 261.564 C 141.750 262.014,142.380 262.383,142.600 262.385 C 143.028 262.388,142.305 261.834,141.000 261.160 C 140.469 260.885,140.536 261.021,141.200 261.564 M145.200 263.964 C 145.750 264.414,146.380 264.783,146.600 264.785 C 147.028 264.788,146.305 264.234,145.000 263.560 C 144.469 263.285,144.536 263.421,145.200 263.964 M320.700 263.431 C 320.535 263.597,320.400 264.999,320.400 266.547 C 320.400 268.510,320.527 269.233,320.820 268.940 C 321.056 268.704,321.187 267.341,321.120 265.824 C 321.054 264.341,320.865 263.264,320.700 263.431 M147.800 265.396 C 148.694 266.139,151.228 267.509,150.600 266.910 C 150.380 266.700,149.480 266.124,148.600 265.630 C 147.720 265.135,147.360 265.030,147.800 265.396 M152.000 267.964 C 152.550 268.414,153.180 268.783,153.400 268.785 C 153.828 268.788,153.105 268.234,151.800 267.560 C 151.269 267.285,151.336 267.421,152.000 267.964 M319.900 272.229 C 319.735 272.396,319.600 273.259,319.600 274.147 C 319.600 275.291,319.724 275.636,320.027 275.333 C 320.262 275.098,320.397 274.235,320.327 273.415 C 320.257 272.595,320.065 272.061,319.900 272.229 M162.800 274.364 C 163.350 274.814,163.980 275.183,164.200 275.185 C 164.628 275.188,163.905 274.634,162.600 273.960 C 162.069 273.685,162.136 273.821,162.800 274.364 M165.400 275.796 C 166.294 276.539,168.828 277.909,168.200 277.310 C 167.980 277.100,167.080 276.524,166.200 276.030 C 165.320 275.535,164.960 275.430,165.400 275.796 M169.600 278.364 C 170.150 278.814,170.780 279.183,171.000 279.185 C 171.428 279.188,170.705 278.634,169.400 277.960 C 168.869 277.685,168.936 277.821,169.600 278.364 M318.800 279.224 C 318.800 279.937,318.967 280.344,319.200 280.200 C 319.420 280.064,319.600 279.513,319.600 278.976 C 319.600 278.439,319.420 278.000,319.200 278.000 C 318.980 278.000,318.800 278.551,318.800 279.224 M173.600 280.764 C 174.150 281.214,174.780 281.583,175.000 281.585 C 175.428 281.588,174.705 281.034,173.400 280.360 C 172.869 280.085,172.936 280.221,173.600 280.764 M318.300 281.828 C 318.135 281.996,318.000 282.679,318.000 283.347 C 318.000 284.214,318.123 284.437,318.431 284.129 C 318.668 283.892,318.803 283.208,318.731 282.610 C 318.659 282.012,318.465 281.661,318.300 281.828 M180.400 284.764 C 180.950 285.214,181.580 285.583,181.800 285.585 C 182.228 285.588,181.505 285.034,180.200 284.360 C 179.669 284.085,179.736 284.221,180.400 284.764 M317.200 286.624 C 317.200 287.204,317.373 287.540,317.600 287.400 C 317.820 287.264,318.000 286.803,318.000 286.376 C 318.000 285.949,317.820 285.600,317.600 285.600 C 317.380 285.600,317.200 286.061,317.200 286.624 M183.600 286.579 C 183.600 286.689,184.140 287.059,184.800 287.400 C 185.460 287.741,186.000 287.931,186.000 287.821 C 186.000 287.711,185.460 287.341,184.800 287.000 C 184.140 286.659,183.600 286.469,183.600 286.579 M187.200 288.764 C 187.750 289.214,188.380 289.583,188.600 289.585 C 189.028 289.588,188.305 289.034,187.000 288.360 C 186.469 288.085,186.536 288.221,187.200 288.764 M316.400 289.824 C 316.400 290.404,316.573 290.740,316.800 290.600 C 317.020 290.464,317.200 290.003,317.200 289.576 C 317.200 289.149,317.020 288.800,316.800 288.800 C 316.580 288.800,316.400 289.261,316.400 289.824 M191.200 291.164 C 191.750 291.614,192.380 291.983,192.600 291.985 C 193.028 291.988,192.305 291.434,191.000 290.760 C 190.469 290.485,190.536 290.621,191.200 291.164 M315.600 292.400 C 315.600 292.840,315.780 293.200,316.000 293.200 C 316.220 293.200,316.400 292.840,316.400 292.400 C 316.400 291.960,316.220 291.600,316.000 291.600 C 315.780 291.600,315.600 291.960,315.600 292.400 M315.100 294.229 C 314.935 294.396,314.800 294.943,314.800 295.443 C 314.800 295.943,314.620 296.464,314.400 296.600 C 314.180 296.736,314.000 297.297,314.000 297.847 C 314.000 298.412,314.174 298.740,314.400 298.600 C 314.620 298.464,314.800 297.949,314.800 297.456 C 314.800 296.963,314.995 296.365,315.234 296.126 C 315.472 295.888,315.607 295.294,315.534 294.808 C 315.460 294.322,315.265 294.061,315.100 294.229 M198.000 295.164 C 198.550 295.614,199.180 295.983,199.400 295.985 C 199.828 295.988,199.105 295.434,197.800 294.760 C 197.269 294.485,197.336 294.621,198.000 295.164 M313.200 299.576 C 313.200 300.029,313.380 300.400,313.600 300.400 C 313.820 300.400,314.000 300.141,314.000 299.824 C 314.000 299.507,313.820 299.136,313.600 299.000 C 313.380 298.864,313.200 299.123,313.200 299.576 M312.400 302.024 C 312.400 302.477,312.580 302.736,312.800 302.600 C 313.020 302.464,313.200 302.093,313.200 301.776 C 313.200 301.459,313.020 301.200,312.800 301.200 C 312.580 301.200,312.400 301.571,312.400 302.024 M311.900 303.431 C 311.735 303.597,311.600 304.063,311.600 304.467 C 311.600 304.870,311.420 305.200,311.200 305.200 C 310.980 305.200,310.800 305.549,310.800 305.976 C 310.800 306.403,310.620 306.864,310.400 307.000 C 310.180 307.136,310.000 307.507,310.000 307.824 C 310.000 308.141,310.180 308.400,310.400 308.400 C 310.620 308.400,310.800 308.135,310.800 307.812 C 310.800 307.489,311.169 306.567,311.620 305.764 C 312.381 304.410,312.581 302.744,311.900 303.431 M307.875 312.428 C 306.844 314.506,306.000 316.430,306.000 316.703 C 306.000 316.976,305.820 317.200,305.600 317.200 C 305.380 317.200,305.200 317.380,305.200 317.600 C 305.200 317.820,305.355 318.000,305.543 318.000 C 306.039 318.000,310.117 309.752,309.918 309.153 C 309.825 308.876,308.906 310.350,307.875 312.428 M304.400 319.000 C 304.400 319.330,304.580 319.600,304.800 319.600 C 305.020 319.600,305.200 319.330,305.200 319.000 C 305.200 318.670,305.020 318.400,304.800 318.400 C 304.580 318.400,304.400 318.670,304.400 319.000 M303.200 321.400 C 302.898 322.170,302.504 322.800,302.325 322.800 C 302.146 322.800,302.000 322.980,302.000 323.200 C 302.000 324.079,302.698 323.513,303.526 321.962 C 304.500 320.136,304.539 320.000,304.075 320.000 C 303.896 320.000,303.502 320.630,303.200 321.400 M300.736 325.200 C 300.444 325.860,300.090 326.400,299.951 326.400 C 299.811 326.400,299.473 326.940,299.200 327.600 C 298.927 328.260,298.545 328.800,298.351 328.800 C 298.158 328.800,298.000 329.055,298.000 329.367 C 298.000 329.678,297.775 330.014,297.500 330.112 C 297.225 330.210,297.126 330.426,297.279 330.591 C 297.595 330.931,299.568 328.844,299.587 328.149 C 299.594 327.901,299.866 327.477,300.192 327.207 C 300.693 326.791,302.000 324.573,302.000 324.139 C 302.000 323.531,301.164 324.233,300.736 325.200 M296.071 332.020 C 295.592 332.466,295.200 332.970,295.200 333.140 C 295.200 333.309,294.691 333.977,294.070 334.624 C 292.206 336.563,292.123 337.624,293.977 335.819 C 294.869 334.949,295.600 334.004,295.600 333.719 C 295.600 333.433,295.737 333.200,295.904 333.200 C 296.271 333.200,297.321 331.587,297.099 331.365 C 297.012 331.279,296.550 331.574,296.071 332.020 M290.179 339.500 C 288.720 341.291,279.837 350.657,279.022 351.263 C 276.883 352.853,273.477 355.998,273.886 356.006 C 274.059 356.009,273.935 356.180,273.612 356.384 C 273.288 356.589,273.116 356.849,273.229 356.962 C 273.342 357.076,274.739 355.916,276.332 354.384 C 277.925 352.853,279.361 351.600,279.522 351.600 C 279.899 351.600,287.600 343.879,287.600 343.501 C 287.600 343.344,288.679 342.087,289.998 340.708 C 291.317 339.329,292.397 338.065,292.398 337.900 C 292.403 337.170,291.612 337.740,290.179 339.500 M116.600 348.000 C 118.571 349.980,120.273 351.600,120.383 351.600 C 120.493 351.600,118.971 349.980,117.000 348.000 C 115.029 346.020,113.327 344.400,113.217 344.400 C 113.107 344.400,114.629 346.020,116.600 348.000 " stroke="none" fill="#3b547b" fill-rule="evenodd"></path><path id="path4" d="M200.000 84.726 L 200.000 152.385 198.100 153.374 C 197.055 153.918,196.313 154.371,196.451 154.381 C 197.007 154.423,199.493 153.210,199.928 152.686 C 200.400 152.118,200.676 17.743,200.207 17.274 C 200.093 17.160,200.000 47.513,200.000 84.726 M188.800 157.600 C 188.030 158.022,187.513 158.374,187.651 158.383 C 188.065 158.411,190.800 157.205,190.800 156.995 C 190.800 156.646,190.225 156.820,188.800 157.600 M181.000 161.171 C 179.680 161.813,178.730 162.352,178.888 162.369 C 179.292 162.412,183.600 160.418,183.600 160.188 C 183.600 159.907,183.585 159.912,181.000 161.171 M172.200 165.171 C 170.880 165.813,169.930 166.352,170.088 166.369 C 170.492 166.412,174.800 164.418,174.800 164.188 C 174.800 163.907,174.785 163.912,172.200 165.171 M163.400 169.171 C 162.080 169.813,161.130 170.352,161.288 170.369 C 161.692 170.412,166.000 168.418,166.000 168.188 C 166.000 167.907,165.985 167.912,163.400 169.171 M107.012 169.717 C 106.841 170.112,106.813 170.547,106.951 170.684 C 107.357 171.090,107.684 170.520,107.497 169.731 C 107.332 169.033,107.310 169.032,107.012 169.717 M154.600 173.171 C 153.280 173.813,152.330 174.352,152.488 174.369 C 152.892 174.412,157.200 172.418,157.200 172.188 C 157.200 171.907,157.185 171.912,154.600 173.171 M146.400 176.800 C 145.630 177.222,145.197 177.574,145.439 177.583 C 145.940 177.602,148.400 176.429,148.400 176.171 C 148.400 175.846,147.794 176.037,146.400 176.800 M102.180 178.643 C 102.049 179.059,101.773 179.715,101.567 180.100 C 101.295 180.610,101.344 180.800,101.747 180.800 C 102.051 180.800,102.414 180.231,102.553 179.536 C 102.834 178.130,102.554 177.458,102.180 178.643 M137.600 180.800 C 136.830 181.222,136.397 181.574,136.639 181.583 C 137.140 181.602,139.600 180.429,139.600 180.171 C 139.600 179.846,138.994 180.037,137.600 180.800 M99.675 183.800 C 99.157 184.395,99.007 184.799,99.303 184.797 C 99.576 184.795,100.008 184.345,100.262 183.797 C 100.840 182.551,100.761 182.551,99.675 183.800 M128.800 184.800 C 128.030 185.222,127.597 185.574,127.839 185.583 C 128.340 185.602,130.800 184.429,130.800 184.171 C 130.800 183.846,130.194 184.037,128.800 184.800 M98.571 185.506 C 98.038 185.871,97.520 187.201,97.913 187.197 C 98.071 187.195,98.408 186.745,98.662 186.197 C 98.917 185.649,99.097 185.203,99.062 185.206 C 99.028 185.209,98.807 185.344,98.571 185.506 M96.800 188.200 C 96.392 188.691,96.420 188.800,96.951 188.800 C 97.308 188.800,97.600 188.530,97.600 188.200 C 97.600 187.870,97.532 187.600,97.449 187.600 C 97.366 187.600,97.074 187.870,96.800 188.200 M120.000 188.800 C 119.230 189.222,118.797 189.574,119.039 189.583 C 119.540 189.602,122.000 188.429,122.000 188.171 C 122.000 187.846,121.394 188.037,120.000 188.800 M96.171 189.506 C 95.638 189.871,95.120 191.201,95.513 191.197 C 95.671 191.195,96.008 190.745,96.262 190.197 C 96.517 189.649,96.697 189.203,96.662 189.206 C 96.628 189.209,96.407 189.344,96.171 189.506 M94.400 192.200 C 93.992 192.691,94.020 192.800,94.551 192.800 C 94.908 192.800,95.200 192.530,95.200 192.200 C 95.200 191.870,95.132 191.600,95.049 191.600 C 94.966 191.600,94.674 191.870,94.400 192.200 M111.200 192.800 C 110.430 193.222,109.997 193.574,110.239 193.583 C 110.740 193.602,113.200 192.429,113.200 192.171 C 113.200 191.846,112.594 192.037,111.200 192.800 M93.771 193.506 C 93.238 193.871,92.720 195.201,93.113 195.197 C 93.271 195.195,93.608 194.745,93.862 194.197 C 94.117 193.649,94.297 193.203,94.262 193.206 C 94.228 193.209,94.007 193.344,93.771 193.506 M92.058 196.500 C 91.817 197.105,91.435 197.600,91.210 197.600 C 90.984 197.600,90.800 197.950,90.800 198.377 C 90.800 198.805,90.406 199.431,89.924 199.768 C 89.442 200.106,89.185 200.518,89.351 200.685 C 89.662 200.995,91.175 199.301,91.191 198.626 C 91.196 198.420,91.579 197.848,92.043 197.354 C 92.506 196.861,92.798 196.219,92.691 195.929 C 92.571 195.604,92.326 195.825,92.058 196.500 M102.400 196.800 C 101.630 197.222,101.113 197.574,101.251 197.583 C 101.665 197.611,104.400 196.405,104.400 196.195 C 104.400 195.846,103.825 196.020,102.400 196.800 M93.600 200.800 C 92.830 201.222,92.313 201.574,92.451 201.583 C 92.865 201.611,95.600 200.405,95.600 200.195 C 95.600 199.846,95.025 200.020,93.600 200.800 M88.900 201.465 C 88.625 201.576,88.400 202.012,88.400 202.433 C 88.400 203.277,89.072 203.418,90.000 202.768 C 90.470 202.439,90.405 202.403,89.700 202.601 C 88.719 202.877,88.520 202.440,89.280 201.680 C 89.786 201.174,89.717 201.135,88.900 201.465 M82.000 228.600 C 82.000 229.297,82.630 229.399,83.022 228.765 C 83.169 228.526,83.630 228.419,84.046 228.528 C 84.461 228.636,84.700 228.562,84.577 228.363 C 84.188 227.734,82.000 227.935,82.000 228.600 M85.200 228.927 C 85.200 229.022,87.135 230.236,89.500 231.624 C 91.865 233.012,94.205 234.405,94.700 234.720 C 95.195 235.034,95.600 235.193,95.600 235.071 C 95.600 234.950,93.395 233.551,90.700 231.964 C 84.856 228.521,85.200 228.711,85.200 228.927 M82.060 230.100 C 82.027 230.485,81.820 230.800,81.600 230.800 C 81.078 230.800,81.080 232.279,81.603 232.602 C 82.153 232.942,82.496 231.908,82.290 230.534 C 82.196 229.910,82.093 229.715,82.060 230.100 M80.900 234.685 C 80.135 236.330,80.212 237.559,81.030 236.742 C 81.409 236.362,81.608 235.616,81.530 234.862 L 81.400 233.611 80.900 234.685 M97.569 236.291 C 98.103 236.681,99.453 237.499,100.569 238.109 C 101.686 238.720,102.164 238.900,101.631 238.509 C 101.097 238.119,99.747 237.301,98.631 236.691 C 97.514 236.080,97.036 235.900,97.569 236.291 M80.472 239.100 C 80.432 239.595,80.220 240.000,80.000 240.000 C 79.477 240.000,79.479 242.678,80.003 243.002 C 80.609 243.377,80.865 242.323,80.696 240.149 C 80.613 239.077,80.512 238.605,80.472 239.100 M103.000 239.490 C 103.220 239.700,104.120 240.276,105.000 240.770 C 105.880 241.265,106.240 241.370,105.800 241.004 C 104.906 240.261,102.372 238.891,103.000 239.490 M106.800 241.739 C 106.800 241.912,108.729 243.076,112.000 244.876 C 113.196 245.534,113.259 245.541,112.434 244.923 C 111.151 243.963,106.800 241.504,106.800 241.739 M79.600 246.176 C 79.600 246.933,79.420 247.664,79.200 247.800 C 78.679 248.122,78.654 265.600,79.175 265.600 C 79.381 265.600,79.622 266.185,79.711 266.900 C 79.799 267.615,79.901 262.935,79.936 256.500 C 79.971 250.065,79.910 244.800,79.800 244.800 C 79.690 244.800,79.600 245.419,79.600 246.176 M114.400 246.133 C 114.400 246.242,115.975 247.269,117.900 248.416 C 119.825 249.563,121.985 250.853,122.700 251.283 C 123.415 251.713,124.000 251.976,124.000 251.867 C 124.000 251.758,122.425 250.731,120.500 249.584 C 118.575 248.437,116.415 247.147,115.700 246.717 C 114.985 246.287,114.400 246.024,114.400 246.133 M124.400 252.136 C 124.400 252.328,130.631 256.071,131.400 256.340 C 132.116 256.591,129.058 254.575,126.700 253.241 C 125.435 252.526,124.400 252.029,124.400 252.136 M132.600 257.007 C 133.040 257.366,133.760 257.835,134.200 258.051 L 135.000 258.444 134.200 257.793 C 133.760 257.434,133.040 256.965,132.600 256.749 L 131.800 256.356 132.600 257.007 M136.769 259.491 C 137.303 259.881,138.653 260.699,139.769 261.309 C 140.886 261.920,141.364 262.100,140.831 261.709 C 140.297 261.319,138.947 260.501,137.831 259.891 C 136.714 259.280,136.236 259.100,136.769 259.491 M142.200 262.690 C 142.420 262.900,143.320 263.476,144.200 263.970 C 145.080 264.465,145.440 264.570,145.000 264.204 C 144.106 263.461,141.572 262.091,142.200 262.690 M147.207 265.724 C 149.294 267.109,152.400 268.859,152.400 268.650 C 152.400 268.435,146.412 264.800,146.056 264.800 C 145.923 264.800,146.441 265.216,147.207 265.724 M153.600 269.333 C 153.600 269.442,155.175 270.469,157.100 271.616 C 159.025 272.763,161.185 274.053,161.900 274.483 C 162.615 274.913,163.200 275.176,163.200 275.067 C 163.200 274.958,161.625 273.931,159.700 272.784 C 157.775 271.637,155.615 270.347,154.900 269.917 C 154.185 269.487,153.600 269.224,153.600 269.333 M79.600 271.271 C 79.600 272.024,79.763 272.811,79.961 273.020 C 80.160 273.229,80.409 273.760,80.515 274.200 C 80.621 274.640,80.728 274.077,80.754 272.949 C 80.785 271.568,80.604 270.735,80.200 270.400 C 79.687 269.974,79.600 270.100,79.600 271.271 M163.600 275.339 C 163.600 275.512,165.529 276.676,168.800 278.476 C 169.996 279.134,170.059 279.141,169.234 278.523 C 167.951 277.563,163.600 275.104,163.600 275.339 M80.656 276.278 C 80.260 276.673,80.354 278.400,80.771 278.400 C 80.975 278.400,81.224 278.715,81.324 279.100 C 81.425 279.485,81.528 279.046,81.554 278.124 C 81.598 276.526,81.208 275.725,80.656 276.278 M171.200 279.733 C 171.200 279.842,172.775 280.869,174.700 282.016 C 176.625 283.163,178.785 284.453,179.500 284.883 C 180.215 285.313,180.800 285.576,180.800 285.467 C 180.800 285.358,179.225 284.331,177.300 283.184 C 175.375 282.037,173.215 280.747,172.500 280.317 C 171.785 279.887,171.200 279.624,171.200 279.733 M81.200 281.567 C 81.200 282.025,81.367 282.400,81.571 282.400 C 81.775 282.400,82.031 282.715,82.141 283.100 C 82.250 283.485,82.309 283.184,82.270 282.431 C 82.195 280.958,81.200 280.155,81.200 281.567 M82.139 285.015 C 81.998 285.381,82.063 285.798,82.282 285.940 C 82.501 286.083,82.783 286.470,82.908 286.800 C 83.034 287.130,83.151 286.826,83.168 286.124 C 83.204 284.702,82.535 283.982,82.139 285.015 M181.200 285.736 C 181.200 285.928,187.431 289.671,188.200 289.940 C 188.916 290.191,185.858 288.175,183.500 286.841 C 182.235 286.126,181.200 285.629,181.200 285.736 M82.958 288.164 C 82.829 288.503,83.010 289.067,83.361 289.418 C 83.946 290.003,84.000 289.973,84.000 289.052 C 84.000 287.873,83.299 287.276,82.958 288.164 M189.400 290.607 C 189.840 290.966,190.560 291.435,191.000 291.651 L 191.800 292.044 191.000 291.393 C 190.560 291.034,189.840 290.565,189.400 290.349 L 188.600 289.956 189.400 290.607 M83.600 290.980 C 83.600 291.352,83.870 291.927,84.200 292.257 C 84.733 292.790,84.800 292.771,84.800 292.078 C 84.800 291.649,84.530 291.074,84.200 290.800 C 83.707 290.391,83.600 290.423,83.600 290.980 M193.569 293.091 C 194.103 293.481,195.453 294.299,196.569 294.909 C 197.686 295.520,198.164 295.700,197.631 295.309 C 197.097 294.919,195.747 294.101,194.631 293.491 C 193.514 292.880,193.036 292.700,193.569 293.091 M84.400 293.951 C 84.400 294.144,84.670 294.526,85.000 294.800 C 85.501 295.216,85.600 295.158,85.600 294.449 C 85.600 293.961,85.345 293.600,85.000 293.600 C 84.670 293.600,84.400 293.758,84.400 293.951 M85.200 296.351 C 85.200 296.544,85.470 296.926,85.800 297.200 C 86.301 297.616,86.400 297.558,86.400 296.849 C 86.400 296.361,86.145 296.000,85.800 296.000 C 85.470 296.000,85.200 296.158,85.200 296.351 M199.079 296.436 C 199.616 296.976,199.350 301.925,198.749 302.580 C 198.557 302.789,198.400 303.734,198.400 304.680 C 198.400 305.626,198.220 306.400,198.000 306.400 C 197.780 306.400,197.600 307.109,197.600 307.976 C 197.600 308.843,197.420 309.664,197.200 309.800 C 196.980 309.936,196.800 310.667,196.800 311.424 C 196.800 312.181,196.620 312.800,196.400 312.800 C 196.180 312.800,196.000 313.329,196.000 313.976 C 196.000 314.623,195.820 315.264,195.600 315.400 C 195.380 315.536,195.200 316.166,195.200 316.800 C 195.200 317.434,195.020 318.064,194.800 318.200 C 194.580 318.336,194.400 318.799,194.400 319.229 C 194.400 319.659,194.220 320.368,194.000 320.805 C 193.780 321.242,193.420 321.958,193.200 322.395 C 192.980 322.832,192.800 323.464,192.800 323.800 C 192.800 324.136,192.641 324.723,192.447 325.105 C 192.252 325.487,191.913 326.250,191.693 326.800 C 191.104 328.274,186.258 338.167,186.011 338.400 C 185.895 338.510,185.575 339.005,185.300 339.500 C 185.025 339.995,184.575 340.805,184.300 341.300 C 184.025 341.795,183.701 342.290,183.581 342.400 C 183.460 342.510,182.926 343.230,182.394 344.000 C 181.862 344.770,181.193 345.641,180.907 345.935 C 180.622 346.229,179.896 347.126,179.294 347.929 C 176.339 351.873,170.613 356.347,165.600 358.630 C 164.830 358.980,163.887 359.432,163.505 359.634 C 163.123 359.835,162.459 360.000,162.029 360.000 C 161.599 360.000,161.136 360.180,161.000 360.400 C 160.864 360.620,160.144 360.800,159.400 360.800 C 158.656 360.800,157.936 360.980,157.800 361.200 C 157.651 361.442,154.804 361.600,150.600 361.600 C 146.396 361.600,143.549 361.442,143.400 361.200 C 143.264 360.980,142.454 360.800,141.600 360.800 C 140.746 360.800,139.936 360.620,139.800 360.400 C 139.664 360.180,139.034 360.000,138.400 360.000 C 137.766 360.000,137.136 359.820,137.000 359.600 C 136.864 359.380,136.401 359.200,135.971 359.200 C 135.541 359.200,134.877 359.041,134.495 358.847 C 134.113 358.652,133.350 358.315,132.800 358.097 C 131.850 357.721,128.925 356.423,126.835 355.449 C 126.305 355.202,124.818 353.965,123.533 352.700 C 122.247 351.435,121.048 350.400,120.868 350.400 C 120.571 350.400,119.131 348.929,111.357 340.689 C 109.951 339.198,108.800 337.803,108.800 337.589 C 108.800 337.376,108.080 336.459,107.200 335.552 C 106.320 334.645,105.600 333.695,105.600 333.440 C 105.600 333.185,105.240 332.717,104.800 332.400 C 104.360 332.083,104.000 331.638,103.999 331.412 C 103.999 331.185,103.459 330.370,102.800 329.600 C 102.141 328.830,101.601 328.057,101.601 327.883 C 101.600 327.709,101.240 327.180,100.800 326.708 C 100.360 326.236,100.000 325.613,100.000 325.325 C 100.000 325.036,99.841 324.800,99.647 324.800 C 99.452 324.800,99.193 324.485,99.071 324.100 C 98.854 323.415,97.596 321.196,97.200 320.800 C 97.090 320.690,96.595 319.835,96.100 318.900 C 95.605 317.965,94.795 316.435,94.300 315.500 C 93.805 314.565,93.265 313.740,93.100 313.667 C 92.935 313.593,92.800 313.295,92.800 313.004 C 92.800 312.549,92.233 311.250,90.750 308.305 C 90.557 307.923,90.400 307.338,90.400 307.005 C 90.400 306.672,90.220 306.400,90.000 306.400 C 89.780 306.400,89.600 306.040,89.600 305.600 C 89.600 305.156,89.333 304.800,89.000 304.800 C 88.670 304.800,88.400 304.980,88.400 305.200 C 88.400 305.420,88.580 305.600,88.800 305.600 C 89.020 305.600,89.200 306.061,89.200 306.624 C 89.200 307.204,89.373 307.540,89.600 307.400 C 89.827 307.260,90.000 307.596,90.000 308.176 C 90.000 308.739,90.180 309.200,90.400 309.200 C 90.620 309.200,90.800 309.560,90.800 310.000 C 90.800 310.440,90.980 310.800,91.200 310.800 C 91.420 310.800,91.600 311.351,91.600 312.024 C 91.600 312.737,91.767 313.144,92.000 313.000 C 92.228 312.859,92.400 313.204,92.400 313.800 C 92.400 314.396,92.572 314.741,92.800 314.600 C 93.020 314.464,93.200 314.633,93.200 314.976 C 93.200 315.319,93.380 315.600,93.600 315.600 C 93.820 315.600,94.000 315.960,94.000 316.400 C 94.000 316.840,94.180 317.200,94.400 317.200 C 94.620 317.200,94.800 317.560,94.800 318.000 C 94.800 318.440,94.980 318.800,95.200 318.800 C 95.420 318.800,95.600 319.160,95.600 319.600 C 95.600 320.040,95.780 320.400,96.000 320.400 C 96.220 320.400,96.400 320.771,96.400 321.224 C 96.400 321.677,96.580 321.936,96.800 321.800 C 97.020 321.664,97.200 321.833,97.200 322.176 C 97.200 322.519,97.380 322.800,97.600 322.800 C 97.820 322.800,98.000 323.160,98.000 323.600 C 98.000 324.040,98.180 324.400,98.400 324.400 C 98.620 324.400,98.800 324.636,98.800 324.925 C 98.800 325.213,99.160 325.836,99.600 326.308 C 100.040 326.780,100.400 327.309,100.401 327.483 C 100.401 327.657,100.941 328.430,101.600 329.200 C 102.259 329.970,102.799 330.785,102.799 331.012 C 102.800 331.238,103.160 331.683,103.600 332.000 C 104.040 332.317,104.400 332.807,104.400 333.088 C 104.400 333.369,105.120 334.341,106.000 335.248 C 106.880 336.155,107.600 337.066,107.600 337.274 C 107.600 337.482,108.500 338.529,109.600 339.600 C 110.700 340.671,111.600 341.741,111.600 341.978 C 111.600 342.542,122.263 353.200,122.828 353.200 C 123.067 353.200,123.946 353.911,124.780 354.780 C 125.615 355.648,126.774 356.479,127.355 356.625 C 127.937 356.770,128.751 357.320,129.164 357.845 C 129.577 358.370,130.105 358.800,130.337 358.800 C 130.569 358.800,131.244 359.250,131.838 359.800 C 132.431 360.350,133.147 360.800,133.429 360.800 C 133.711 360.800,134.270 361.206,134.671 361.702 C 135.072 362.198,135.895 362.824,136.500 363.093 C 137.105 363.363,137.600 363.767,137.600 363.991 C 137.600 364.216,137.950 364.400,138.377 364.400 C 138.805 364.400,139.412 364.768,139.727 365.217 C 140.041 365.666,140.457 365.985,140.649 365.925 C 141.203 365.753,144.435 367.832,144.113 368.153 C 143.954 368.312,144.132 368.324,144.509 368.180 C 144.949 368.011,145.282 368.149,145.442 368.566 C 145.579 368.922,145.896 369.182,146.146 369.143 C 146.866 369.030,148.800 369.939,148.800 370.390 C 148.800 370.616,149.160 370.800,149.600 370.800 C 150.040 370.800,150.400 370.999,150.400 371.243 C 150.400 371.486,150.677 371.579,151.015 371.450 C 151.371 371.313,151.730 371.474,151.867 371.830 C 151.997 372.169,152.357 372.349,152.667 372.230 C 152.977 372.111,153.328 372.269,153.448 372.581 C 153.568 372.894,153.907 373.057,154.201 372.944 C 154.495 372.832,155.169 373.024,155.700 373.371 C 156.230 373.718,156.780 373.886,156.923 373.744 C 157.065 373.602,157.297 373.787,157.438 374.155 C 157.601 374.578,157.958 374.740,158.414 374.596 C 158.809 374.470,159.248 374.555,159.390 374.784 C 159.531 375.013,160.002 375.200,160.436 375.200 C 160.870 375.200,161.331 375.475,161.460 375.812 C 161.602 376.182,161.975 376.335,162.405 376.198 C 162.796 376.074,163.392 376.249,163.729 376.586 C 164.067 376.924,164.806 377.200,165.371 377.200 C 165.937 377.200,166.400 377.403,166.400 377.650 C 166.400 377.938,166.838 378.012,167.615 377.857 C 168.500 377.680,168.894 377.781,169.066 378.228 C 169.237 378.672,169.618 378.772,170.451 378.589 C 171.316 378.399,171.665 378.503,171.859 379.010 C 172.065 379.546,172.434 379.633,173.669 379.435 C 174.872 379.243,175.275 379.329,175.463 379.820 C 175.650 380.308,176.046 380.395,177.198 380.200 C 178.259 380.021,178.864 380.121,179.289 380.546 C 179.674 380.931,180.550 381.118,181.758 381.072 C 182.972 381.025,183.748 381.192,183.966 381.545 C 184.227 381.967,184.935 382.028,187.089 381.811 C 189.361 381.583,189.991 381.648,190.509 382.166 C 191.458 383.115,208.542 383.115,209.491 382.166 C 210.009 381.648,210.639 381.583,212.911 381.811 C 215.065 382.027,215.773 381.967,216.034 381.545 C 216.259 381.183,217.071 381.021,218.452 381.063 C 219.813 381.104,220.733 380.924,221.115 380.542 C 221.501 380.157,222.089 380.044,222.847 380.210 C 223.630 380.382,224.195 380.262,224.626 379.831 C 224.973 379.484,225.684 379.200,226.205 379.200 C 226.726 379.200,227.249 379.044,227.367 378.854 C 227.618 378.447,230.490 377.909,232.182 377.951 C 232.833 377.967,233.463 377.846,233.582 377.681 C 234.050 377.037,236.012 376.000,236.762 376.000 C 237.197 376.000,237.664 375.820,237.800 375.600 C 237.936 375.380,238.487 375.200,239.024 375.200 C 239.561 375.200,240.000 375.020,240.000 374.800 C 240.000 374.580,240.355 374.400,240.788 374.400 C 241.221 374.400,242.239 374.027,243.050 373.572 C 243.927 373.080,244.887 372.835,245.420 372.969 C 246.002 373.115,246.396 372.987,246.543 372.604 C 246.672 372.269,247.036 372.115,247.385 372.250 C 247.723 372.379,248.000 372.286,248.000 372.043 C 248.000 371.799,248.360 371.600,248.800 371.600 C 249.240 371.600,249.600 371.420,249.600 371.200 C 249.600 370.980,249.960 370.800,250.400 370.800 C 250.840 370.800,251.200 370.620,251.200 370.400 C 251.200 370.180,251.560 370.000,252.000 370.000 C 252.440 370.000,252.800 369.820,252.800 369.600 C 252.800 369.380,253.141 369.200,253.557 369.200 C 253.974 369.200,254.417 368.933,254.542 368.607 C 254.672 368.269,255.035 368.115,255.385 368.250 C 255.723 368.379,256.000 368.304,256.000 368.082 C 256.000 367.593,258.618 366.000,259.423 366.000 C 259.740 366.000,260.000 365.816,260.000 365.591 C 260.000 365.367,260.493 364.962,261.095 364.691 C 261.696 364.421,262.506 363.885,262.895 363.500 C 263.283 363.115,263.780 362.800,264.000 362.800 C 264.220 362.800,264.715 362.527,265.100 362.193 C 267.114 360.447,268.784 359.158,268.988 359.192 C 269.356 359.254,270.154 358.659,270.797 357.842 C 271.440 357.025,270.773 357.079,268.500 358.025 C 268.005 358.231,267.195 358.568,266.700 358.774 C 266.205 358.979,265.080 359.361,264.200 359.623 C 263.320 359.884,262.287 360.256,261.905 360.449 C 261.523 360.642,260.679 360.800,260.029 360.800 C 259.379 360.800,258.736 360.980,258.600 361.200 C 258.464 361.420,257.409 361.600,256.256 361.600 C 255.103 361.600,253.968 361.792,253.733 362.027 C 252.762 362.998,238.481 361.502,237.771 360.354 C 237.651 360.159,237.291 360.000,236.972 360.000 C 233.687 360.000,222.926 351.692,218.580 345.800 C 217.931 344.920,217.175 343.962,216.900 343.671 C 216.625 343.381,216.400 342.989,216.400 342.800 C 216.400 342.611,216.165 342.219,215.878 341.929 C 215.590 341.638,214.915 340.590,214.378 339.600 C 213.840 338.610,213.294 337.710,213.163 337.600 C 213.033 337.490,211.976 335.420,210.815 333.000 C 208.820 328.845,208.455 328.029,207.500 325.600 C 207.284 325.050,206.948 324.287,206.753 323.905 C 206.559 323.523,206.400 322.859,206.400 322.429 C 206.400 321.999,206.220 321.536,206.000 321.400 C 205.780 321.264,205.600 320.724,205.600 320.200 C 205.600 319.676,205.420 319.136,205.200 319.000 C 204.980 318.864,204.800 318.401,204.800 317.971 C 204.800 317.541,204.642 316.877,204.449 316.495 C 203.865 315.339,203.200 312.996,203.200 312.095 C 203.200 311.629,203.040 311.148,202.844 311.027 C 202.649 310.906,202.388 310.221,202.266 309.504 C 202.144 308.787,201.841 307.300,201.593 306.200 C 201.345 305.100,201.048 303.390,200.932 302.400 C 200.817 301.410,200.560 300.429,200.361 300.220 C 200.163 300.011,200.000 299.085,200.000 298.163 C 200.000 296.934,199.813 296.414,199.300 296.219 C 198.755 296.011,198.706 296.059,199.079 296.436 M86.000 299.024 C 86.000 299.367,86.180 299.536,86.400 299.400 C 86.633 299.256,86.800 299.663,86.800 300.376 C 86.800 301.049,86.980 301.600,87.200 301.600 C 87.420 301.600,87.600 302.031,87.600 302.557 C 87.600 303.084,87.870 303.618,88.200 303.745 C 88.918 304.020,88.967 303.511,88.338 302.295 C 87.342 300.369,87.200 299.983,87.200 299.205 C 87.200 298.756,86.935 298.400,86.600 298.400 C 86.270 298.400,86.000 298.681,86.000 299.024 " stroke="none" fill="#4c98b8" fill-rule="evenodd"></path></g></svg>
