<svg width="144" height="144" xmlns="http://www.w3.org/2000/svg">
 <g>
  <title>background</title>
  <rect fill="none" id="canvas_background" rx="6" height="146" width="146"/>
 </g>
 <g>
  <title>Layer 1</title>
  <g stroke="null" id="svg_1">
   <path stroke="null" id="svg_2" d="m93.222643,54.816453l0,-6.757576c0,-11.391342 -9.559749,-20.658875 -21.413837,-20.658875c-11.854088,0 -21.413837,9.267533 -21.413837,20.658875l0,6.757576l-8.794969,0l0,47.496104l0,0l30.400001,14.287446l30.400001,-14.287446l0,0l0,-47.496104l-9.177359,0zm-31.929561,-6.757576c0,-5.212987 4.779874,-9.65368 10.515724,-9.65368c5.735849,0 10.515724,4.247619 10.515724,9.65368l0,6.757576l-21.031447,0l0,-6.757576zm28.679246,46.337663l-18.163523,8.495238l-18.163523,-8.495238l0,-28.381818l36.327045,0l0,28.381818z"/>
  </g>
 </g>
</svg>
